<?xml version="1.0" standalone="no"?>
<!DOCTYPE svg PUBLIC "-//W3C//DTD SVG 20010904//EN"
 "http://www.w3.org/TR/2001/REC-SVG-20010904/DTD/svg10.dtd">
<svg version="1.0" xmlns="http://www.w3.org/2000/svg"
 width="300.000000pt" height="190.000000pt" viewBox="0 0 300.000000 190.000000"
 preserveAspectRatio="xMidYMid meet">
<metadata>
Created by potrace 1.10, written by Peter Selinger 2001-2011
</metadata>
<g transform="translate(0.000000,190.000000) scale(0.100000,-0.100000)"
fill="#000000" stroke="none">
<path d="M1168 1761 c-73 -24 -116 -51 -166 -105 -63 -68 -94 -139 -100 -222
l-4 -71 28 -6 c16 -3 115 -6 220 -7 145 0 193 2 201 12 5 7 18 36 28 63 27 75
63 132 116 185 27 26 49 51 49 56 0 9 -73 58 -120 80 -81 39 -162 44 -252 15z
m205 -23 c16 -3 42 -15 57 -27 16 -11 33 -21 38 -21 5 0 16 -7 23 -16 11 -14
11 -18 -4 -29 -9 -6 -14 -15 -10 -18 3 -4 1 -7 -6 -7 -15 0 -41 -25 -41 -39 0
-6 -4 -11 -8 -11 -7 0 -32 -46 -79 -145 l-19 -40 -154 -3 c-85 -2 -175 -1
-199 3 l-44 7 6 61 c5 58 35 150 37 117 1 -8 10 2 19 23 10 20 20 36 22 34 2
-2 12 5 22 15 9 10 14 18 11 18 -4 0 -1 7 6 15 7 8 16 12 21 9 5 -3 9 0 9 7 0
7 3 10 6 7 3 -3 31 7 62 23 51 26 65 29 127 26 39 -3 83 -7 98 -9z"/>
<path d="M1710 1661 c-105 -23 -208 -102 -253 -195 -31 -62 -60 -176 -55 -215
3 -23 6 -20 32 29 89 171 248 270 490 306 l39 6 -29 20 c-16 11 -21 18 -12 15
9 -3 34 -9 55 -12 55 -9 113 -27 113 -36 0 -10 -75 -69 -89 -69 -6 0 -11 -5
-11 -12 0 -6 -29 -39 -65 -73 -36 -35 -65 -65 -65 -68 0 -3 -12 -19 -27 -34
-14 -15 -23 -21 -19 -13 4 8 -1 6 -11 -6 -26 -30 -107 -72 -173 -89 -73 -19
-150 -20 -150 -2 0 14 34 61 63 86 9 8 17 21 17 28 0 7 4 13 9 13 5 0 29 18
52 40 24 22 47 40 51 40 5 0 21 9 36 20 15 11 72 36 126 55 55 20 105 40 113
46 17 15 18 45 1 32 -7 -6 -59 -25 -114 -42 -133 -42 -211 -90 -293 -177 -66
-71 -126 -164 -119 -186 5 -14 94 -12 182 3 119 21 173 55 333 211 100 97 167
153 205 173 32 17 58 33 58 36 0 3 -55 21 -122 39 -128 34 -291 48 -368 31z
m170 -30 c0 -5 -12 -12 -27 -17 -156 -43 -282 -100 -305 -137 -4 -7 -8 -8 -8
-4 0 12 -50 -44 -50 -56 0 -6 -2 -8 -5 -5 -12 12 22 72 66 117 78 81 116 94
312 110 9 0 17 -3 17 -8z"/>
<path d="M550 1290 c-98 -5 -123 -10 -173 -34 -74 -36 -152 -112 -182 -178
-13 -29 -54 -175 -91 -325 -56 -226 -65 -275 -54 -288 11 -14 144 -15 1254
-13 l1241 3 62 29 c70 32 148 107 182 175 26 49 140 514 144 581 l2 45 -195 6
c-356 11 -769 10 -793 -3 -12 -6 -44 -29 -71 -50 -98 -78 -212 -123 -351 -139
-66 -8 -103 -8 -132 0 -36 10 -41 15 -47 49 -3 20 -6 63 -6 95 l0 57 -337 -2
c-186 -1 -390 -4 -453 -8z m751 -37 c0 -5 3 -35 5 -67 2 -33 11 -67 19 -76 8
-9 15 -21 15 -27 0 -6 12 -13 28 -16 43 -8 74 -16 78 -20 3 -2 -3 -24 -12 -49
l-17 -45 -38 38 c-59 59 -93 72 -196 77 -72 3 -102 0 -140 -14 -26 -10 -51
-23 -55 -28 -4 -6 -8 -7 -8 -2 0 9 -58 -49 -92 -92 -9 -11 -20 -37 -24 -56
-10 -54 -26 -31 -23 33 4 102 1 117 -28 137 -18 11 -49 18 -88 20 -53 1 -63
-2 -85 -25 -25 -25 -25 -30 -25 -171 0 -142 -13 -218 -36 -204 -5 3 -9 -2 -9
-10 0 -9 -4 -16 -9 -16 -5 0 -12 -7 -15 -17 -9 -21 34 -124 48 -116 6 3 6 0
-1 -7 -9 -10 -67 -12 -245 -11 -210 1 -235 3 -251 19 -15 16 -16 23 -6 48 7
16 14 42 16 57 1 15 7 36 13 47 5 10 10 31 10 45 0 15 6 41 14 58 8 18 18 50
22 72 15 83 39 172 58 217 34 80 152 176 244 197 45 11 832 14 833 4z m1579
-3 c20 -11 16 -40 -25 -190 -2 -8 -9 -42 -15 -75 -7 -33 -15 -69 -20 -80 -4
-11 -13 -45 -19 -75 -24 -114 -28 -129 -52 -166 -31 -51 -77 -101 -108 -119
-97 -54 -99 -54 -446 -55 -126 -1 -275 -1 -330 -2 -397 -3 -1138 1 -1143 6 -3
4 4 15 17 27 22 21 73 96 77 114 1 6 9 28 17 50 8 22 12 47 9 55 -11 36 16 -9
32 -52 37 -100 136 -159 264 -158 101 2 173 29 226 87 46 49 86 140 86 195 0
44 13 48 51 15 40 -34 46 -55 54 -170 7 -98 25 -120 102 -125 29 -2 62 2 73 8
28 15 51 71 49 118 -5 88 30 155 105 203 47 29 48 30 44 77 -4 39 -36 135 -38
109 0 -5 -7 -1 -16 7 -8 9 -21 16 -27 16 -15 -1 -115 -49 -103 -49 6 -1 -9
-15 -31 -31 l-41 -31 -29 28 c-15 15 -27 32 -25 36 1 5 -1 6 -5 4 -5 -3 -17 1
-28 9 -26 19 -12 29 65 46 30 6 57 15 60 18 3 4 22 13 43 19 20 7 43 18 50 24
20 19 107 77 115 77 4 0 18 9 32 20 24 19 43 20 469 20 258 0 451 -4 461 -10z
m-1582 -241 c165 -80 142 -343 -38 -421 -56 -25 -178 -28 -230 -6 -90 38 -140
112 -140 205 1 119 77 213 197 243 54 13 161 3 211 -21z m260 1 c51 -30 102
-92 102 -125 0 -22 18 -18 25 6 15 46 133 149 170 149 7 0 20 -30 30 -66 15
-56 16 -67 4 -75 -8 -5 -19 -9 -26 -9 -22 0 -86 -64 -104 -105 -13 -29 -19
-65 -19 -127 l0 -88 -75 0 -75 0 0 93 c0 108 -19 160 -72 201 -19 14 -39 26
-44 26 -31 1 -34 17 -15 73 22 64 29 77 39 77 4 0 31 -14 60 -30z m-748 -92
c-1 -173 -13 -251 -47 -306 -25 -41 -103 -112 -121 -112 -4 0 -22 26 -40 57
-29 49 -31 58 -17 65 63 36 79 93 73 271 l-4 137 78 0 78 0 0 -112z"/>
<path d="M2075 1054 c-11 -8 -19 -20 -17 -25 1 -5 -2 -9 -7 -9 -5 0 -19 -20
-31 -45 -13 -26 -26 -42 -32 -38 -7 3 -8 1 -4 -5 4 -7 2 -12 -4 -12 -6 0 -9
-4 -6 -8 3 -5 -10 -33 -29 -63 -19 -30 -35 -59 -35 -65 0 -7 -7 -15 -16 -18
-8 -3 -13 -10 -9 -15 3 -5 1 -12 -4 -16 -6 -3 -20 -26 -32 -50 -22 -43 -22
-47 -6 -80 14 -30 30 -42 40 -33 1 2 16 -7 34 -20 42 -29 63 -28 103 8 18 17
29 30 24 30 -5 0 -4 4 3 8 6 4 41 9 77 10 63 3 66 2 76 -23 5 -14 18 -28 27
-32 10 -4 21 -11 24 -16 12 -17 56 -10 78 12 11 11 28 21 36 21 8 0 15 4 15 9
0 5 9 12 19 16 16 5 19 12 14 43 -4 20 -17 54 -30 74 -12 21 -23 42 -23 48 0
5 -4 10 -10 10 -5 0 -10 4 -10 9 0 9 -60 105 -80 129 -6 7 -8 17 -5 22 4 6 -1
7 -11 3 -12 -4 -15 -2 -12 8 3 8 0 19 -6 25 -6 7 -20 24 -31 40 -11 15 -25 33
-32 39 -7 7 -10 14 -8 17 13 12 -63 5 -80 -8z m176 -200 c68 -107 128 -202
134 -209 5 -8 7 -16 5 -17 -27 -19 -113 -68 -121 -68 -5 0 -19 20 -31 45 l-22
45 -67 0 c-109 0 -130 -7 -147 -52 -8 -21 -19 -38 -24 -38 -10 0 -118 60 -118
66 0 5 173 297 222 377 17 26 33 47 37 47 4 0 63 -88 132 -196z"/>
<path d="M2091 803 c-8 -21 -16 -44 -18 -50 -4 -9 8 -13 41 -13 25 0 46 4 46
8 0 15 -40 92 -48 92 -4 0 -14 -17 -21 -37z"/>
<path d="M1111 923 c-42 -21 -61 -64 -61 -137 0 -44 5 -60 26 -85 21 -26 33
-31 69 -31 36 0 48 5 69 31 32 38 40 67 34 130 -8 84 -70 126 -137 92z m89
-53 c6 -11 8 -20 4 -20 -3 0 -1 -6 5 -14 8 -10 9 -16 1 -21 -5 -3 -7 -17 -4
-30 14 -58 -67 -101 -100 -53 -23 33 -21 109 4 136 27 28 75 29 90 2z"/>
<path d="M366 362 c-2 -4 -5 -65 -5 -136 l-1 -127 38 3 c37 3 37 3 37 48 0 45
0 45 40 50 37 5 41 9 37 39 -1 6 -19 11 -39 13 -66 5 -53 68 13 68 30 0 34 3
34 25 0 24 -2 25 -74 25 -41 0 -77 -4 -80 -8z m43 -73 c-6 -13 -6 -19 1 -19 5
0 10 -7 10 -15 0 -8 5 -15 10 -15 6 0 10 -7 10 -16 0 -13 -3 -14 -13 -5 -10 8
-13 7 -13 -7 1 -9 -3 -19 -8 -22 -6 -3 -10 28 -10 73 -1 63 1 74 11 61 9 -12
9 -22 2 -35z"/>
<path d="M848 363 c-10 -2 -18 -9 -18 -14 0 -5 -5 -9 -11 -9 -19 0 -48 -41
-60 -84 -15 -55 15 -120 66 -142 105 -44 213 12 223 116 5 58 -11 90 -61 120
-30 19 -95 25 -139 13z m103 -60 c22 -25 17 -122 -6 -139 -27 -20 -69 -17 -90
6 -22 24 -22 92 0 126 19 29 75 33 96 7z m61 -71 c-1 -25 -6 -50 -12 -56 -7
-7 -8 4 -4 35 4 27 2 55 -4 66 -6 11 -8 23 -5 27 13 12 25 -26 25 -72z"/>
<path d="M1354 345 c-72 -43 -94 -123 -51 -186 33 -49 62 -61 131 -55 68 5
103 26 128 77 65 127 -80 241 -208 164z m130 -47 c19 -26 20 -63 5 -107 -12
-34 -42 -47 -83 -37 -47 12 -59 104 -19 148 23 26 78 24 97 -4z m59 -40 c3
-18 1 -37 -4 -43 -6 -5 -9 -3 -10 5 -1 8 -3 27 -5 43 -4 38 13 34 19 -5z
m-208 -29 c-3 -3 0 -21 5 -38 7 -24 6 -31 -3 -28 -7 2 -12 9 -12 15 0 5 -3 13
-6 16 -3 3 -4 20 -1 37 3 21 7 27 13 18 4 -7 6 -16 4 -20z"/>
<path d="M1848 362 c-16 -3 -18 -18 -18 -133 l0 -130 48 7 c117 16 202 81 202
154 0 58 -45 89 -142 98 -40 4 -81 6 -90 4z m103 -54 c19 -6 37 -16 41 -22 13
-18 9 -60 -7 -83 -16 -22 -74 -57 -76 -45 -4 26 -6 130 -2 145 5 20 2 20 44 5z
m86 -20 c5 -13 6 -34 2 -48 -4 -16 -7 -19 -8 -7 -1 25 -2 30 -12 55 -5 12 -5
22 0 22 4 0 12 -10 18 -22z m-157 -83 c0 -28 4 -45 12 -45 9 0 9 -3 0 -12 -6
-6 -14 -9 -18 -5 -10 9 -12 107 -2 107 4 0 8 -20 8 -45z"/>
<path d="M2381 352 c-44 -22 -75 -64 -67 -89 3 -11 24 -30 47 -42 48 -27 48
-49 0 -65 -37 -12 -45 -23 -32 -45 25 -39 157 41 149 90 -4 26 -45 59 -76 62
-12 1 -22 7 -22 14 0 16 39 43 63 43 13 0 18 6 15 23 -4 28 -32 32 -77 9z"/>
</g>
</svg>
