<?xml version="1.0" encoding="UTF-8"?>
<svg version="1.1" xmlns="http://www.w3.org/2000/svg" width="240" height="154">
<path d="M0 0 C1.32 0 2.64 0 4 0 C7.14535463 12.94650434 7.1443698 24.98810721 0.5 36.875 C-7.88442125 49.92896279 -18.86869436 60.68371224 -31.66796875 69.37109375 C-36.07241959 72.44756947 -40.01012212 75.51518318 -43 80 C-43.36141955 82.32914823 -43.69699525 84.66253478 -44 87 C-45 88 -45 88 -48.0625 88.0625 C-49.031875 88.041875 -50.00125 88.02125 -51 88 C-51 90.97 -51 93.94 -51 97 C-48.69 97 -46.38 97 -44 97 C-43.06934867 99.60582371 -42.85082593 100.64198224 -43.9375 103.25 C-44.288125 103.8275 -44.63875 104.405 -45 105 C-46.98 105 -48.96 105 -51 105 C-51 107.97 -51 110.94 -51 114 C-50.05125 113.979375 -49.1025 113.95875 -48.125 113.9375 C-45 114 -45 114 -43 115 C-42.95745644 116.99954746 -42.95919217 119.00041636 -43 121 C-44 122 -44 122 -47.37890625 122.09765625 C-48.77347077 122.09098369 -50.16801743 122.07902532 -51.5625 122.0625 C-52.62887695 122.05573242 -52.62887695 122.05573242 -53.71679688 122.04882812 C-55.47790013 122.03700864 -57.23896036 122.01907263 -59 122 C-60.04116214 117.72214778 -60.16109233 113.55763256 -60.16796875 109.1796875 C-60.17296135 108.06897385 -60.17296135 108.06897385 -60.17805481 106.93582153 C-60.1830982 105.3776308 -60.18546394 103.81942935 -60.18530273 102.26123047 C-60.18749927 99.87579772 -60.20570918 97.49082042 -60.22460938 95.10546875 C-60.22754182 93.58854324 -60.22952761 92.07161555 -60.23046875 90.5546875 C-60.24124702 89.48587845 -60.24124702 89.48587845 -60.25224304 88.39547729 C-60.23514053 84.70251003 -60.10584001 83.15876001 -58 80 C-55.6171875 79.70703125 -55.6171875 79.70703125 -52.875 79.8125 C-51.96492188 79.83957031 -51.05484375 79.86664063 -50.1171875 79.89453125 C-49.41851562 79.92933594 -48.71984375 79.96414062 -48 80 C-47.67 78.35 -47.34 76.7 -47 75 C-61.08465428 76.4375209 -61.08465428 76.4375209 -75 79 C-75 82.1451595 -73.86745079 84.98943549 -73 88 C-72.64628502 89.66246041 -72.30404678 91.32774271 -72 93 C-70.56549973 90.13099945 -70.62088917 87.26527087 -70.37890625 84.09375 C-70 82 -70 82 -68 80 C-64.375 80.375 -64.375 80.375 -61 81 C-61.56428606 89.98124373 -62.59129153 98.80140778 -64 107.6875 C-64.17789063 108.85216797 -64.35578125 110.01683594 -64.5390625 111.21679688 C-65.86690353 119.73380706 -65.86690353 119.73380706 -67 122 C-69.97 122 -72.94 122 -76 122 C-78.12104259 116.39778438 -79.06289769 110.69229003 -80.0625 104.8125 C-80.23587891 103.83474609 -80.40925781 102.85699219 -80.58789062 101.84960938 C-83.75244549 83.50489097 -83.75244549 83.50489097 -82 80 C-84.475 80.495 -84.475 80.495 -87 81 C-86.51321777 81.68320313 -86.02643555 82.36640625 -85.52490234 83.0703125 C-83.69435978 86.58720503 -83.6127137 88.92428949 -83.6015625 92.875 C-83.59576172 94.84726563 -83.59576172 94.84726563 -83.58984375 96.859375 C-83.59612793 97.53935547 -83.60241211 98.21933594 -83.60888672 98.91992188 C-83.62495475 100.99415892 -83.60901268 103.06644796 -83.58984375 105.140625 C-83.59371094 106.45546875 -83.59757812 107.7703125 -83.6015625 109.125 C-83.60494629 110.32382813 -83.60833008 111.52265625 -83.61181641 112.7578125 C-84.10926104 116.91257017 -85.42286087 119.71492368 -88.6875 122.375 C-93.48534177 123.67171399 -97.7244477 122.66435016 -102 120.4375 C-102.66 119.963125 -103.32 119.48875 -104 119 C-104.33 119.99 -104.66 120.98 -105 122 C-109.95 122 -114.9 122 -120 122 C-120.16740321 116.34017703 -120.32798446 110.68021782 -120.48217773 105.02001953 C-120.53562804 103.09353392 -120.59095971 101.16709958 -120.64819336 99.24072266 C-120.73001986 96.4756984 -120.80513291 93.71056186 -120.87890625 90.9453125 C-120.90594131 90.0806839 -120.93297638 89.2160553 -120.96083069 88.32522583 C-121.11387171 82.22774341 -121.11387171 82.22774341 -120 80 C-117.66705225 79.95758277 -115.33297433 79.95907063 -113 80 C-111.04901915 81.95098085 -111.74584892 85.64674929 -111.68359375 88.31640625 C-111.66281265 89.04746078 -111.64203156 89.77851532 -111.62062073 90.53172302 C-111.55504976 92.87521656 -111.49620568 95.21882539 -111.4375 97.5625 C-111.39432192 99.14779855 -111.35070787 100.73308529 -111.30664062 102.31835938 C-111.1993608 106.21212037 -111.0981151 110.10599772 -111 114 C-107.535 114.495 -107.535 114.495 -104 115 C-104.01571045 114.17798096 -104.0314209 113.35596191 -104.04760742 112.5090332 C-104.11005073 108.77692572 -104.14902136 105.04492828 -104.1875 101.3125 C-104.21263672 100.01892578 -104.23777344 98.72535156 -104.26367188 97.39257812 C-104.27333984 96.14541016 -104.28300781 94.89824219 -104.29296875 93.61328125 C-104.3086792 92.46641846 -104.32438965 91.31955566 -104.34057617 90.13793945 C-103.95968775 86.62857828 -103.15538761 84.77517582 -101 82 C-99.515 81.505 -99.515 81.505 -98 81 C-98 80.34 -98 79.68 -98 79 C-98.7734375 78.97421875 -99.546875 78.9484375 -100.34375 78.921875 C-112.18769981 78.27690744 -118.72037089 74.42574021 -127 66 C-128.70451157 64.00545374 -129.79276943 62.35958701 -131 60 C-130.67 59.01 -130.34 58.02 -130 57 C-129.36578125 56.92523438 -128.7315625 56.85046875 -128.078125 56.7734375 C-120.10003207 55.64945203 -112.62426387 53.51682319 -104.94433594 51.12060547 C-93.06447054 47.41481055 -83.6245421 46.55595979 -72 52 C-60.11646109 59.5221007 -60.11646109 59.5221007 -58 65 C-58.66 65.66 -59.32 66.32 -60 67 C-59.22914063 67.26554687 -58.45828125 67.53109375 -57.6640625 67.8046875 C-56.66117187 68.15789062 -55.65828125 68.51109375 -54.625 68.875 C-53.62726563 69.22304687 -52.62953125 69.57109375 -51.6015625 69.9296875 C-49 71 -49 71 -47 73 C-43.04 66.07 -39.08 59.14 -35 52 C-38.0210629 55.77632862 -40.38548637 59.19697951 -42.75390625 63.328125 C-44 65 -44 65 -47 66 C-48.85039495 64.14960505 -48.26009196 61.29774425 -48.3125 58.8125 C-48.18717364 45.13800175 -44.06760895 33.72526595 -34.3125 24.125 C-29.05178042 19.63633141 -23.03627642 16.36080562 -17.00317383 13.03173828 C-7.3857088 7.81411199 -7.3857088 7.81411199 0 0 Z M-31 44 C-30 46 -30 46 -30 46 Z M-33 47 C-33 50 -33 50 -33 50 Z M-81 63 C-81 63.33 -81 63.66 -81 64 C-79.35 64 -77.7 64 -76 64 C-76 63.67 -76 63.34 -76 63 C-77.65 63 -79.3 63 -81 63 Z M-74 64 C-74 64.33 -74 64.66 -74 65 C-70.7 65.33 -67.4 65.66 -64 66 C-67.6441774 63.5705484 -69.71241272 63.83820425 -74 64 Z M-94 88 C-95.27305556 89.04871253 -95.27305556 89.04871253 -95.11352539 91.40844727 C-95.10828857 92.45057373 -95.10305176 93.4927002 -95.09765625 94.56640625 C-95.09443359 95.69111328 -95.09121094 96.81582031 -95.08789062 97.97460938 C-95.07951172 99.15861328 -95.07113281 100.34261719 -95.0625 101.5625 C-95.05798828 102.75037109 -95.05347656 103.93824219 -95.04882812 105.16210938 C-95.03699675 108.10812226 -95.02051287 111.05403681 -95 114 C-94.34 114 -93.68 114 -93 114 C-93 105.42 -93 96.84 -93 88 C-93.33 88 -93.66 88 -94 88 Z " fill="#DCE7E0" transform="translate(233,30)"/>
<path d="M0 0 C1.32 0 2.64 0 4 0 C7.14535463 12.94650434 7.1443698 24.98810721 0.5 36.875 C-7.88442125 49.92896279 -18.86869436 60.68371224 -31.66796875 69.37109375 C-36.07241959 72.44756947 -40.01012212 75.51518318 -43 80 C-43.36141955 82.32914823 -43.69699525 84.66253478 -44 87 C-45 88 -45 88 -48.0625 88.0625 C-49.031875 88.041875 -50.00125 88.02125 -51 88 C-51 90.97 -51 93.94 -51 97 C-48.69 97 -46.38 97 -44 97 C-43.06934867 99.60582371 -42.85082593 100.64198224 -43.9375 103.25 C-44.4634375 104.11625 -44.4634375 104.11625 -45 105 C-46.98 105 -48.96 105 -51 105 C-51 107.97 -51 110.94 -51 114 C-50.05125 113.979375 -49.1025 113.95875 -48.125 113.9375 C-45 114 -45 114 -43 115 C-42.95745644 116.99954746 -42.95919217 119.00041636 -43 121 C-44 122 -44 122 -47.37890625 122.09765625 C-48.77347077 122.09098369 -50.16801743 122.07902532 -51.5625 122.0625 C-52.62887695 122.05573242 -52.62887695 122.05573242 -53.71679688 122.04882812 C-55.47790013 122.03700864 -57.23896036 122.01907263 -59 122 C-60.04116214 117.72214778 -60.16109233 113.55763256 -60.16796875 109.1796875 C-60.17296135 108.06897385 -60.17296135 108.06897385 -60.17805481 106.93582153 C-60.1830982 105.3776308 -60.18546394 103.81942935 -60.18530273 102.26123047 C-60.18749927 99.87579772 -60.20570918 97.49082042 -60.22460938 95.10546875 C-60.22754182 93.58854324 -60.22952761 92.07161555 -60.23046875 90.5546875 C-60.23765427 89.84214813 -60.24483978 89.12960876 -60.25224304 88.39547729 C-60.23514053 84.70251003 -60.10584001 83.15876001 -58 80 C-55.6171875 79.70703125 -55.6171875 79.70703125 -52.875 79.8125 C-51.96492188 79.83957031 -51.05484375 79.86664063 -50.1171875 79.89453125 C-49.41851562 79.92933594 -48.71984375 79.96414062 -48 80 C-47.67 78.35 -47.34 76.7 -47 75 C-49.64 75 -52.28 75 -55 75 C-55 74.67 -55 74.34 -55 74 C-52.525 73.505 -52.525 73.505 -50 73 C-66.09917554 67.51804655 -82.14516247 64.92821156 -99 63 C-96.60809204 60.60809204 -96.07482373 60.74407989 -92.81640625 60.734375 C-91.97601807 60.73050781 -91.13562988 60.72664063 -90.26977539 60.72265625 C-89.37637451 60.73167969 -88.48297363 60.74070313 -87.5625 60.75 C-86.65685303 60.75386719 -85.75120605 60.75773437 -84.81811523 60.76171875 C-79.13494143 60.8350566 -73.74032445 61.24611743 -68.19140625 62.5625 C-65.74974609 63.04996157 -63.48351347 63.07008151 -61 63 C-62.63743663 61.73902076 -64.28549709 60.49183483 -65.9375 59.25 C-66.85402344 58.55390625 -67.77054688 57.8578125 -68.71484375 57.140625 C-76.57561276 52.01850679 -82.68790538 50.41076623 -92.0625 50.75 C-93.02349609 50.76804688 -93.98449219 50.78609375 -94.97460938 50.8046875 C-97.31749227 50.85131204 -99.6581829 50.91671831 -102 51 C-94.27451267 47.01578641 -86.45507482 47.05678474 -78.1875 49.4375 C-71.18627755 51.94499816 -62.53531631 56.67068793 -58.6640625 63.28125 C-58.44492188 63.8484375 -58.22578125 64.415625 -58 65 C-58.66 65.66 -59.32 66.32 -60 67 C-59.22914063 67.26554687 -58.45828125 67.53109375 -57.6640625 67.8046875 C-56.66117188 68.15789062 -55.65828125 68.51109375 -54.625 68.875 C-53.62726563 69.22304687 -52.62953125 69.57109375 -51.6015625 69.9296875 C-49 71 -49 71 -47 73 C-43.04 66.07 -39.08 59.14 -35 52 C-38.0210629 55.77632862 -40.38548637 59.19697951 -42.75390625 63.328125 C-44 65 -44 65 -47 66 C-48.85039495 64.14960505 -48.26009196 61.29774425 -48.3125 58.8125 C-48.18717364 45.13800175 -44.06760895 33.72526595 -34.3125 24.125 C-29.05178042 19.63633141 -23.03627642 16.36080562 -17.00317383 13.03173828 C-7.3857088 7.81411199 -7.3857088 7.81411199 0 0 Z M-31 44 C-30 46 -30 46 -30 46 Z M-33 47 C-33 50 -33 50 -33 50 Z M-81 63 C-81 63.33 -81 63.66 -81 64 C-79.35 64 -77.7 64 -76 64 C-76 63.67 -76 63.34 -76 63 C-77.65 63 -79.3 63 -81 63 Z M-74 64 C-74 64.33 -74 64.66 -74 65 C-70.7 65.33 -67.4 65.66 -64 66 C-67.6441774 63.5705484 -69.71241272 63.83820425 -74 64 Z " fill="#66AF48" transform="translate(233,30)"/>
<path d="M0 0 C2.625 0.375 2.625 0.375 4.3125 2.4375 C5.76696373 5.69272834 6.74508884 8.92304085 7.625 12.375 C7.68558594 11.59253906 7.74617187 10.81007813 7.80859375 10.00390625 C7.89238281 8.99199219 7.97617188 7.98007813 8.0625 6.9375 C8.14371094 5.92816406 8.22492187 4.91882813 8.30859375 3.87890625 C8.625 1.375 8.625 1.375 9.625 0.375 C12.625 0.25 12.625 0.25 15.625 0.375 C17.37621704 2.12621704 16.83767729 4.60256763 16.90625 6.984375 C16.94363281 8.13164063 16.98101563 9.27890625 17.01953125 10.4609375 C17.07173828 12.27464844 17.07173828 12.27464844 17.125 14.125 C17.19410093 16.494906 17.26688161 18.86470822 17.34375 21.234375 C17.37404297 22.29108398 17.40433594 23.34779297 17.43554688 24.43652344 C17.61190504 27.17189316 18.01659027 29.70612572 18.625 32.375 C21.0191715 18.97801142 21.0191715 18.97801142 22.31640625 5.44140625 C22.625 3.375 22.625 3.375 24.625 0.375 C26.71875 -0.0234375 26.71875 -0.0234375 29.125 0 C29.9190625 -0.00773437 30.713125 -0.01546875 31.53125 -0.0234375 C32.2221875 0.10804687 32.913125 0.23953125 33.625 0.375 C35.87792544 3.75438816 36.13709547 5.76398767 36.66015625 9.7578125 C36.82966797 11.00691406 36.99917969 12.25601563 37.17382812 13.54296875 C37.34333984 14.84878906 37.51285156 16.15460938 37.6875 17.5 C38.02732321 20.08669512 38.37373351 22.67230837 38.72265625 25.2578125 C38.94707397 26.98088623 38.94707397 26.98088623 39.17602539 28.73876953 C39.34941624 31.29220032 39.34941624 31.29220032 40.625 32.375 C40.63958252 31.61356689 40.65416504 30.85213379 40.66918945 30.06762695 C40.74380541 26.60708112 40.84042259 23.14748555 40.9375 19.6875 C40.96005859 18.48931641 40.98261719 17.29113281 41.00585938 16.05664062 C41.04130859 14.89970703 41.07675781 13.74277344 41.11328125 12.55078125 C41.13946533 11.48770752 41.16564941 10.42463379 41.19262695 9.3293457 C41.67945981 6.00288358 42.64969581 4.07382557 44.625 1.375 C48.31931608 -0.47215804 52.59214833 -0.10060286 56.625 0.375 C59.22969425 2.15381558 60.18735692 3.31736255 61.375 6.1875 C62.30792683 14.35060976 62.30792683 14.35060976 59.625 18.375 C60.615 19.365 60.615 19.365 61.625 20.375 C62.19221461 23.48717543 62.23095557 26.65513895 62.375 29.8125 C62.43042969 30.68455078 62.48585938 31.55660156 62.54296875 32.45507812 C62.60677734 33.71288086 62.60677734 33.71288086 62.671875 34.99609375 C62.73133301 36.14742798 62.73133301 36.14742798 62.79199219 37.32202148 C62.625 39.375 62.625 39.375 60.625 42.375 C57.98046875 42.9921875 57.98046875 42.9921875 54.8125 43.25 C53.77480469 43.35054687 52.73710938 43.45109375 51.66796875 43.5546875 C47.20695267 43.29126421 44.72490096 41.47490096 41.625 38.375 C41.295 39.695 40.965 41.015 40.625 42.375 C37.985 42.375 35.345 42.375 32.625 42.375 C32.356875 41.570625 32.08875 40.76625 31.8125 39.9375 C31.2246875 38.6690625 31.2246875 38.6690625 30.625 37.375 C29.635 37.045 28.645 36.715 27.625 36.375 C27.83125 36.99375 28.0375 37.6125 28.25 38.25 C28.37375 38.95125 28.4975 39.6525 28.625 40.375 C26.625 42.375 26.625 42.375 22.7109375 42.5703125 C21.14050649 42.55700376 19.57013779 42.53313602 18 42.5 C17.19820312 42.49097656 16.39640625 42.48195312 15.5703125 42.47265625 C13.58841477 42.44906223 11.60667019 42.41319065 9.625 42.375 C6.625 34.75 6.625 34.75 6.625 31.375 C5.965 31.375 5.305 31.375 4.625 31.375 C4.63660156 32.08527344 4.64820313 32.79554688 4.66015625 33.52734375 C4.67369141 34.90599609 4.67369141 34.90599609 4.6875 36.3125 C4.69910156 37.22902344 4.71070313 38.14554688 4.72265625 39.08984375 C4.625 41.375 4.625 41.375 3.625 42.375 C1.29202567 42.41592937 -1.04205225 42.41741723 -3.375 42.375 C-3.39964638 36.55428378 -3.4178343 30.73359766 -3.42993164 24.9128418 C-3.43497267 22.93106559 -3.44180538 20.94929311 -3.45043945 18.9675293 C-3.46251515 16.12547891 -3.46823045 13.28347753 -3.47265625 10.44140625 C-3.47781754 9.54974258 -3.48297882 8.65807892 -3.48829651 7.73939514 C-3.48849177 5.61759399 -3.4371003 3.4958922 -3.375 1.375 C-2.375 0.375 -2.375 0.375 0 0 Z M50.625 8.375 C50.625 11.675 50.625 14.975 50.625 18.375 C51.945 18.045 53.265 17.715 54.625 17.375 C53.965 14.405 53.305 11.435 52.625 8.375 C51.965 8.375 51.305 8.375 50.625 8.375 Z M29.625 25.375 C30.625 27.375 30.625 27.375 30.625 27.375 Z M50.625 25.375 C50.625 28.345 50.625 31.315 50.625 34.375 C51.285 34.375 51.945 34.375 52.625 34.375 C53.66714691 29.75992226 53.66714691 29.75992226 52.625 25.375 C51.965 25.375 51.305 25.375 50.625 25.375 Z " fill="#E1EDE6" transform="translate(5.375,109.625)"/>
<path d="M0 0 C6.58310202 0.76493791 9.99420128 5.03455441 14 10 C19.17935633 18.82362633 21.38262876 27.92313711 21.3125 38.0625 C21.30730347 39.29987915 21.30730347 39.29987915 21.30200195 40.56225586 C21.13529136 50.11265432 19.30524514 59.09363579 16.375 68.1875 C14.60145722 73.69383962 14.28652084 79.24982313 14 85 C12.02 85.495 12.02 85.495 10 86 C7.2165915 76.9877016 5.24805619 68.3604214 4 59 C4 63.95 4 68.9 4 74 C1 74 1 74 -0.68359375 72.34765625 C-8.73647917 61.85558951 -12.68793326 51.93297176 -11.55932617 38.64648438 C-10.59034942 32.32931425 -8.30498384 26.56033339 -6 20.625 C-5.07726608 18.20282347 -4.16039609 15.77840324 -3.25 13.3515625 C-2.63898438 11.77109131 -2.63898438 11.77109131 -2.015625 10.15869141 C-0.92752214 6.77458688 -0.4083241 3.52567889 0 0 Z " fill="#97CB50" transform="translate(167,1)"/>
<path d="M0 0 C11.01460655 -0.69257502 19.89978771 3.70011978 28.29296875 10.671875 C29.15921875 11.538125 30.02546875 12.404375 30.91796875 13.296875 C30.91796875 13.626875 30.91796875 13.956875 30.91796875 14.296875 C29.20938659 14.15398646 27.50111235 14.00741411 25.79296875 13.859375 C24.36597656 13.73755859 24.36597656 13.73755859 22.91015625 13.61328125 C19.91796875 13.296875 19.91796875 13.296875 17.19921875 12.765625 C12.63747197 12.11394689 8.14387243 12.19171327 3.54296875 12.234375 C2.61613281 12.23888672 1.68929687 12.24339844 0.734375 12.24804688 C-1.53782834 12.25975926 -3.80989513 12.27616128 -6.08203125 12.296875 C-5.37296631 12.39709961 -4.66390137 12.49732422 -3.93334961 12.60058594 C27.45073599 17.08875189 27.45073599 17.08875189 39.91796875 22.296875 C39.91796875 22.626875 39.91796875 22.956875 39.91796875 23.296875 C26.4465954 26.26699133 13.19240294 28.78845773 -0.64453125 28.796875 C-1.64669678 28.80267578 -2.6488623 28.80847656 -3.68139648 28.81445312 C-10.25292003 28.7039795 -15.9046945 27.49868465 -22.08203125 25.296875 C-22.89422119 25.01714844 -23.70641113 24.73742187 -24.54321289 24.44921875 C-30.97355735 22.13914126 -35.23143822 17.87630572 -39.08203125 12.296875 C-39.86328125 10.078125 -39.86328125 10.078125 -40.08203125 8.296875 C-38.4018143 6.61665805 -36.13444493 6.80683346 -33.83203125 6.484375 C-29.21845575 5.7619646 -24.95201813 4.69948444 -20.51953125 3.234375 C-13.58010333 1.01474823 -7.17447953 0.69107788 0 0 Z " fill="#568440" transform="translate(142.08203125,79.703125)"/>
<path d="M0 0 C5.64124262 0.7803719 11.02895101 2.27495973 16.5 3.8125 C17.42425781 4.06064453 18.34851563 4.30878906 19.30078125 4.56445312 C27.84185328 6.9654841 33.89942829 10.67060704 39 18 C40.61008532 20.90588972 42.09933694 23.79488179 43 27 C42 30 42 30 40 31 C40.825 31.928125 41.65 32.85625 42.5 33.8125 C45 36.625 45 36.625 45 40 C30.5219412 37.45136185 13.71790279 29.46450775 4.4375 17.875 C0.43929687 11.9525896 -0.24126454 6.99667175 0 0 Z " fill="#D3DC2D" transform="translate(112,30)"/>
<path d="M0 0 C3.35545195 2.57163246 5.83249991 4.50764683 7.375 8.5 C6.715 9.16 6.055 9.82 5.375 10.5 C6.14585937 10.76554687 6.91671875 11.03109375 7.7109375 11.3046875 C9.21527344 11.83449219 9.21527344 11.83449219 10.75 12.375 C11.74773437 12.72304687 12.74546875 13.07109375 13.7734375 13.4296875 C16.375 14.5 16.375 14.5 18.375 16.5 C22.335 9.57 26.295 2.64 30.375 -4.5 C30.87 -3.51 30.87 -3.51 31.375 -2.5 C30.6940918 -0.82348633 30.6940918 -0.82348633 29.57421875 1.16796875 C29.17396484 1.89693359 28.77371094 2.62589844 28.36132812 3.37695312 C27.93271484 4.13943359 27.50410156 4.90191406 27.0625 5.6875 C24.13713891 10.90070144 21.77308383 15.66821386 20.375 21.5 C22.355 19.52 24.335 17.54 26.375 15.5 C27.035 15.83 27.695 16.16 28.375 16.5 C27.95347656 16.92410156 27.53195313 17.34820312 27.09765625 17.78515625 C23.21285623 21.94417745 21.72670594 24.63823428 21.375 30.5 C20.375 31.5 20.375 31.5 17.3125 31.5625 C16.343125 31.541875 15.37375 31.52125 14.375 31.5 C14.375 34.47 14.375 37.44 14.375 40.5 C16.685 40.5 18.995 40.5 21.375 40.5 C22.30565133 43.10582371 22.52417407 44.14198224 21.4375 46.75 C20.9115625 47.61625 20.9115625 47.61625 20.375 48.5 C18.395 48.5 16.415 48.5 14.375 48.5 C14.375 51.47 14.375 54.44 14.375 57.5 C15.32375 57.479375 16.2725 57.45875 17.25 57.4375 C20.375 57.5 20.375 57.5 22.375 58.5 C22.41754356 60.49954746 22.41580783 62.50041636 22.375 64.5 C21.375 65.5 21.375 65.5 17.99609375 65.59765625 C16.60152923 65.59098369 15.20698257 65.57902532 13.8125 65.5625 C12.74612305 65.55573242 12.74612305 65.55573242 11.65820312 65.54882812 C9.89709987 65.53700864 8.13603964 65.51907263 6.375 65.5 C5.33383786 61.22214778 5.21390767 57.05763256 5.20703125 52.6796875 C5.20203865 51.56897385 5.20203865 51.56897385 5.19694519 50.43582153 C5.1919018 48.8776308 5.18953606 47.31942935 5.18969727 45.76123047 C5.18750073 43.37579772 5.16929082 40.99082042 5.15039062 38.60546875 C5.14745818 37.08854324 5.14547239 35.57161555 5.14453125 34.0546875 C5.13734573 33.34214813 5.13016022 32.62960876 5.12275696 31.89547729 C5.13985947 28.20251003 5.26915999 26.65876001 7.375 23.5 C9.7578125 23.20703125 9.7578125 23.20703125 12.5 23.3125 C13.86511719 23.35310547 13.86511719 23.35310547 15.2578125 23.39453125 C15.95648438 23.42933594 16.65515625 23.46414062 17.375 23.5 C17.705 21.85 18.035 20.2 18.375 18.5 C15.735 18.5 13.095 18.5 10.375 18.5 C10.375 18.17 10.375 17.84 10.375 17.5 C12.025 17.17 13.675 16.84 15.375 16.5 C-0.72417554 11.01804655 -16.77016247 8.42821156 -33.625 6.5 C-31.23309204 4.10809204 -30.69982373 4.24407989 -27.44140625 4.234375 C-26.60101807 4.23050781 -25.76062988 4.22664063 -24.89477539 4.22265625 C-24.00137451 4.23167969 -23.10797363 4.24070312 -22.1875 4.25 C-21.28185303 4.25386719 -20.37620605 4.25773437 -19.44311523 4.26171875 C-13.75994143 4.3350566 -8.36532445 4.74611743 -2.81640625 6.0625 C-0.37474609 6.54996157 1.89148653 6.57008151 4.375 6.5 C2.73756337 5.23902076 1.08950291 3.99183483 -0.5625 2.75 C-1.47902344 2.05390625 -2.39554688 1.3578125 -3.33984375 0.640625 C-11.20061276 -4.48149321 -17.31290538 -6.08923377 -26.6875 -5.75 C-27.64849609 -5.73195313 -28.60949219 -5.71390625 -29.59960938 -5.6953125 C-31.94249227 -5.64868796 -34.2831829 -5.58328169 -36.625 -5.5 C-24.16027481 -11.92834884 -10.78680824 -8.02331353 0 0 Z M-15.625 6.5 C-15.625 6.83 -15.625 7.16 -15.625 7.5 C-13.975 7.5 -12.325 7.5 -10.625 7.5 C-10.625 7.17 -10.625 6.84 -10.625 6.5 C-12.275 6.5 -13.925 6.5 -15.625 6.5 Z M-8.625 7.5 C-8.625 7.83 -8.625 8.16 -8.625 8.5 C-5.325 8.83 -2.025 9.16 1.375 9.5 C-2.2691774 7.0705484 -4.33741272 7.33820425 -8.625 7.5 Z " fill="#E8EEE8" transform="translate(167.625,86.5)"/>
<path d="M0 0 C3.21954645 2.53453657 4.70432435 4.11297305 6 8 C6.23549118 12.26694186 6.18518164 16.53975497 6.1875 20.8125 C6.19974609 21.98876953 6.21199219 23.16503906 6.22460938 24.37695312 C6.22750977 26.0872168 6.22750977 26.0872168 6.23046875 27.83203125 C6.23457764 28.87077393 6.23868652 29.9095166 6.24291992 30.97973633 C5.97582027 34.30063062 5.28982577 36.93087752 4 40 C-0.05956189 42.9963433 -3.24776185 43.27732416 -8.0703125 42.8125 C-11.06880483 41.54997691 -12.22002667 39.69199949 -14 37 C-14.51757812 33.66601562 -14.51757812 33.66601562 -14.53125 29.90625 C-14.5350769 29.23710571 -14.53890381 28.56796143 -14.54284668 27.87854004 C-14.54555723 26.46995531 -14.53825592 25.06131952 -14.52148438 23.65283203 C-14.50005675 21.50568661 -14.52130912 19.36188603 -14.546875 17.21484375 C-14.54423156 15.8411385 -14.53910625 14.46743533 -14.53125 13.09375 C-14.52673828 11.85302734 -14.52222656 10.61230469 -14.51757812 9.33398438 C-13.91184804 5.43216833 -12.74613519 3.78203238 -10 1 C-6.78070427 -0.60964787 -3.48112288 -0.60686242 0 0 Z M-5 9 C-6.82671197 12.65342394 -6.18470722 16.97839159 -6.1875 21 C-6.19974609 21.928125 -6.21199219 22.85625 -6.22460938 23.8125 C-6.22654297 24.699375 -6.22847656 25.58625 -6.23046875 26.5 C-6.23457764 27.3146875 -6.23868652 28.129375 -6.24291992 28.96875 C-6.18511386 31.22697834 -6.18511386 31.22697834 -4 33 C-2.60164364 25.6586291 -0.7622446 15.35663309 -5 9 Z " fill="#8EBCA1" transform="translate(96,110)"/>
<path d="M0 0 C3.65907504 0.68607657 5.35167676 1.98984314 8 4.5625 C10.20765133 8.97780265 9.22990334 14.96418115 9.25 19.8125 C9.270625 21.04097656 9.29125 22.26945312 9.3125 23.53515625 C9.31765625 24.72496094 9.3228125 25.91476563 9.328125 27.140625 C9.3374707 28.22762695 9.34681641 29.31462891 9.35644531 30.43457031 C8.94400624 34.05386442 7.87333351 36.45548003 6 39.5625 C2.86599115 41.12950442 -0.63155095 41.41414561 -4 40.5625 C-8.92877267 35.61246528 -8.54661125 31.37962022 -8.59570312 24.703125 C-8.58615601 23.6831543 -8.58615601 23.6831543 -8.57641602 22.64257812 C-8.56253267 20.56738329 -8.59666179 18.4966905 -8.63476562 16.421875 C-8.63283203 15.10703125 -8.63089844 13.7921875 -8.62890625 12.4375 C-8.62963135 11.23867187 -8.63035645 10.03984375 -8.63110352 8.8046875 C-7.65803555 3.8057155 -5.03432209 0.94393539 0 0 Z M0 7.5625 C-1.27305556 8.61121253 -1.27305556 8.61121253 -1.11352539 10.97094727 C-1.10828857 12.01307373 -1.10305176 13.0552002 -1.09765625 14.12890625 C-1.09443359 15.25361328 -1.09121094 16.37832031 -1.08789062 17.53710938 C-1.07951172 18.72111328 -1.07113281 19.90511719 -1.0625 21.125 C-1.05798828 22.31287109 -1.05347656 23.50074219 -1.04882812 24.72460938 C-1.03699675 27.67062226 -1.02051287 30.61653681 -1 33.5625 C-0.34 33.5625 0.32 33.5625 1 33.5625 C1 24.9825 1 16.4025 1 7.5625 C0.67 7.5625 0.34 7.5625 0 7.5625 Z " fill="#097A39" transform="translate(139,110.4375)"/>
<path d="M0 0 C6.46288818 -0.2534466 6.46288818 -0.2534466 9.15234375 1.015625 C13.25885555 2.43515994 17.0728496 2.03676248 21.375 1.875 C32.46047729 1.65015067 41.73291278 3.73963857 52 8 C52 8.33 52 8.66 52 9 C38.47198607 11.98260422 25.20894573 14.4877925 11.3125 14.4375 C10.29357666 14.43492188 9.27465332 14.43234375 8.22485352 14.4296875 C2.51250347 14.31522111 -2.51955746 13.6187784 -8 12 C-7.34 11.34 -6.68 10.68 -6 10 C-6 9.01 -6 8.02 -6 7 C-5.6937566 5.66018514 -5.36548445 4.32488113 -5 3 C-3.68 3 -2.36 3 -1 3 C-0.67 2.01 -0.34 1.02 0 0 Z " fill="#588443" transform="translate(130,94)"/>
<path d="M0 0 C1.65 0 3.3 0 5 0 C5.66 2.31 6.32 4.62 7 7 C7.66 7 8.32 7 9 7 C9.99 10.96 10.98 14.92 12 19 C12.33 12.73 12.66 6.46 13 0 C14.65 0 16.3 0 18 0 C18 12.87 18 25.74 18 39 C16.35 39 14.7 39 13 39 C10.69 32.07 8.38 25.14 6 18 C5.67 24.93 5.34 31.86 5 39 C3.35 39 1.7 39 0 39 C0 26.13 0 13.26 0 0 Z " fill="#0F7B3B" transform="translate(3,112)"/>
<path d="M0 0 C2.97 0 5.94 0 9 0 C9.87816947 5.21632666 10.74900635 10.43378102 11.61083984 15.65283203 C11.95116528 17.70545982 12.29735761 19.75711314 12.64453125 21.80859375 C13.59657395 27.6235884 14.23109463 33.1070869 14 39 C12.35 39 10.7 39 9 39 C8.67 36.69 8.34 34.38 8 32 C5.69 32 3.38 32 1 32 C1 34.31 1 36.62 1 39 C-0.98 39 -2.96 39 -5 39 C-1.83112696 12.0423526 -1.83112696 12.0423526 0 0 Z M5 23 C6 25 6 25 6 25 Z " fill="#11773B" transform="translate(30,112)"/>
<path d="M0 0 C2.875 1.375 2.875 1.375 5 4 C5.41773821 7.37363261 5.2903408 10.6191427 5 14 C3.35 14 1.7 14 0 14 C-0.33 11.69 -0.66 9.38 -1 7 C-2.32 7 -3.64 7 -5 7 C-5 16.24 -5 25.48 -5 35 C-3.02 34.505 -3.02 34.505 -1 34 C-0.67 30.37 -0.34 26.74 0 23 C-0.99 23 -1.98 23 -3 23 C-3 21.68 -3 20.36 -3 19 C-0.36 19 2.28 19 5 19 C5 25.93 5 32.86 5 40 C4.34 40 3.68 40 3 40 C2.67 39.34 2.34 38.68 2 38 C1.01 38.66 0.02 39.32 -1 40 C-3.9375 40.375 -3.9375 40.375 -7 40 C-9.84780619 37.76793569 -10.84997666 36.45007001 -12 33 C-12.26005601 28.90017758 -12.23142595 24.79468599 -12.25 20.6875 C-12.270625 19.55892578 -12.29125 18.43035156 -12.3125 17.26757812 C-12.36230639 6.68994606 -12.36230639 6.68994606 -9 2 C-5.48746854 -0.34168764 -4.13530644 -0.49623677 0 0 Z " fill="#117E3D" transform="translate(60,111)"/>
<path d="M0 0 C0.66 0.33 1.32 0.66 2 1 C0.84371094 1.74443359 0.84371094 1.74443359 -0.3359375 2.50390625 C-6.95087872 6.56811987 -6.95087872 6.56811987 -10.6875 13 C-10.8421875 14.485 -10.8421875 14.485 -11 16 C-10.34 16 -9.68 16 -9 16 C-9 19.66666667 -9 23.33333333 -9 27 C-9.66 27 -10.32 27 -11 27 C-10.67 27.66 -10.34 28.32 -10 29 C-9.19175781 28.03578125 -8.38351563 27.0715625 -7.55078125 26.078125 C-6.47159978 24.80187561 -5.39215894 23.5258455 -4.3125 22.25 C-3.78205078 21.61578125 -3.25160156 20.9815625 -2.70507812 20.328125 C0.28925908 16.80105295 3.24704545 13.75727273 7 11 C7.66 11.33 8.32 11.66 9 12 C8.3709375 12.73863281 7.741875 13.47726563 7.09375 14.23828125 C6.22826257 15.26225735 5.36375128 16.28705898 4.5 17.3125 C4.04874756 17.8477832 3.59749512 18.38306641 3.13256836 18.93457031 C-0.63253603 23.45083921 -4.01262821 28.14392646 -7.30859375 33.015625 C-7.86675781 33.67046875 -8.42492187 34.3253125 -9 35 C-9.99 35 -10.98 35 -12 35 C-13.46734561 37.12705947 -14.74764622 39.18938373 -16 41.4375 C-19.60507559 47.86835853 -19.60507559 47.86835853 -23 49 C-24.85039495 47.14960505 -24.26009196 44.29774425 -24.3125 41.8125 C-24.19660746 29.16733598 -20.80693802 17.83099081 -11.7890625 8.78125 C-8.10201937 5.40043969 -4.46863111 2.30495115 0 0 Z M-7 27 C-6 29 -6 29 -6 29 Z M-9 30 C-9 33 -9 33 -9 33 Z " fill="#84BC6C" transform="translate(209,47)"/>
<path d="M0 0 C2.60607392 0.61778047 5.20965697 1.24387211 7.8125 1.875 C8.55048828 2.04902344 9.28847656 2.22304688 10.04882812 2.40234375 C13.49717037 3.24492511 16.01928362 4.01285575 19 6 C18.67 7.32 18.34 8.64 18 10 C21.465 11.485 21.465 11.485 25 13 C25 13.99 25 14.98 25 16 C24.34 16 23.68 16 23 16 C23 15.34 23 14.68 23 14 C20.69 13.34 18.38 12.68 16 12 C16 12.66 16 13.32 16 14 C17.1446875 14.3403125 17.1446875 14.3403125 18.3125 14.6875 C21.59947145 16.29276513 22.2402606 17.86307325 24 21 C25.31963709 22.01800576 26.65009646 23.02248365 28 24 C28 24.66 28 25.32 28 26 C28.99 26.33 29.98 26.66 31 27 C24.68916263 29.10361246 19.13950781 28.38808337 13.2421875 25.53125 C7.45117064 21.57640922 2.29630216 14.60186871 0 8 C-0.12857703 5.32624073 -0.04382594 2.67886032 0 0 Z " fill="#D5DC32" transform="translate(114,32)"/>
<path d="M0 0 C1.65 0 3.3 0 5 0 C5.48945208 2.08094092 5.96588046 4.16494521 6.4375 6.25 C6.83775391 7.99023438 6.83775391 7.99023438 7.24609375 9.765625 C8.32690044 15.1169032 8.62136657 20.56257567 9 26 C9.12846313 24.92516357 9.12846313 24.92516357 9.25952148 23.82861328 C9.6483426 20.59360063 10.04284855 17.35930633 10.4375 14.125 C10.63956055 12.43310547 10.63956055 12.43310547 10.84570312 10.70703125 C10.97783203 9.63066406 11.10996094 8.55429688 11.24609375 7.4453125 C11.36654053 6.45031738 11.4869873 5.45532227 11.61108398 4.43017578 C12 2 12 2 13 0 C14.65 0 16.3 0 18 0 C17.52909934 13.16167342 15.19681565 26.03894035 13 39 C10.36 39 7.72 39 5 39 C4.34564673 34.93882623 3.70314918 30.87585624 3.0625 26.8125 C2.88009766 25.68134766 2.69769531 24.55019531 2.50976562 23.38476562 C1.29021164 15.60179385 0.48758934 7.8624798 0 0 Z " fill="#127D3F" transform="translate(152,112)"/>
<path d="M0 0 C3.0625 0.1875 3.0625 0.1875 5.0625 2.1875 C5.25018653 5.1167303 5.31803641 7.94978397 5.29296875 10.87890625 C5.29228142 12.16957253 5.29228142 12.16957253 5.2915802 13.48631287 C5.28855705 15.30623757 5.28066888 17.12615967 5.26831055 18.94604492 C5.25005148 21.74211724 5.24780085 24.53785866 5.24804688 27.33398438 C5.2431319 29.09896122 5.23730367 30.8639358 5.23046875 32.62890625 C5.22935593 33.47054825 5.2282431 34.31219025 5.22709656 35.17933655 C5.17854705 41.07145295 5.17854705 41.07145295 4.0625 42.1875 C0.5625 42.3125 0.5625 42.3125 -2.9375 42.1875 C-4.83373202 40.29126798 -4.06647626 37.52379641 -4.07644653 35.0012207 C-4.0744223 34.13456787 -4.07239807 33.26791504 -4.0703125 32.375 C-4.07126923 31.49094482 -4.07222595 30.60688965 -4.07321167 29.69604492 C-4.07389351 27.82307871 -4.07203893 25.95011014 -4.06787109 24.07714844 C-4.06252289 21.19981612 -4.06781593 18.32263992 -4.07421875 15.4453125 C-4.07355797 13.63020799 -4.07227681 11.81510357 -4.0703125 10 C-4.07233673 9.13334717 -4.07436096 8.26669434 -4.07644653 7.3737793 C-4.04832358 0.25840363 -4.04832358 0.25840363 0 0 Z " fill="#097B36" transform="translate(73.9375,109.8125)"/>
<path d="M0 0 C0 0.66 0 1.32 0 2 C0.99 1.67 1.98 1.34 3 1 C3 1.66 3 2.32 3 3 C3.70640625 2.75636719 4.4128125 2.51273437 5.140625 2.26171875 C9.15116116 1.89463416 10.60955972 3.38926838 13.75 5.8125 C14.71421875 6.54082031 15.6784375 7.26914063 16.671875 8.01953125 C19 10 19 10 20 12 C18.29141784 11.85711146 16.5831436 11.71053911 14.875 11.5625 C13.44800781 11.44068359 13.44800781 11.44068359 11.9921875 11.31640625 C9 11 9 11 6.25390625 10.47265625 C1.84391043 9.83206862 -2.48766034 9.85526679 -6.9375 9.875 C-7.80568359 9.87113281 -8.67386719 9.86726563 -9.56835938 9.86328125 C-14.48604607 9.87071539 -19.15215056 10.1689401 -24 11 C-24 10.01 -24 9.02 -24 8 C-25.65 7.67 -27.3 7.34 -29 7 C-27.84932077 4.21414502 -27.24935227 2.92217376 -25 1 C-17.50417206 -1.22403686 -7.52327647 -2.50775882 0 0 Z " fill="#578341" transform="translate(153,82)"/>
<path d="M0 0 C4.29 0 8.58 0 13 0 C13 1.65 13 3.3 13 5 C10.69 5 8.38 5 6 5 C6 8.63 6 12.26 6 16 C8.31 16 10.62 16 13 16 C13 17.65 13 19.3 13 21 C10.69 21 8.38 21 6 21 C6 25.29 6 29.58 6 34 C8.31 34 10.62 34 13 34 C13 35.65 13 37.3 13 39 C8.71 39 4.42 39 0 39 C0 26.13 0 13.26 0 0 Z " fill="#12773D" transform="translate(175,112)"/>
<path d="M0 0 C2 1 2 1 2 1 Z M-1 2 C-0.34 2.99 0.32 3.98 1 5 C3.05925139 5.72382467 3.05925139 5.72382467 5 6 C4.67 7.65 4.34 9.3 4 11 C1.69 11 -0.62 11 -3 11 C-3.309375 11.8353125 -3.309375 11.8353125 -3.625 12.6875 C-5.11918076 15.20044037 -6.86220476 16.51338512 -9.13671875 18.296875 C-13.24848035 22.05521474 -16.5596112 26.63452888 -20 31 C-21.72516264 25.82451207 -20.55714461 22.06071997 -19 17 C-19.66 17 -20.32 17 -21 17 C-21.31577173 13.526511 -21.4218681 11.62436479 -19.4375 8.6875 C-16.32951467 6.53581785 -13.71406154 6.52127179 -10 6 C-4.78787879 2 -4.78787879 2 -1 2 Z " fill="#65AF48" transform="translate(219,46)"/>
<path d="M0 0 C1.98 0 3.96 0 6 0 C6 11.22 6 22.44 6 34 C8.31 34 10.62 34 13 34 C13 35.65 13 37.3 13 39 C8.71 39 4.42 39 0 39 C0 26.13 0 13.26 0 0 Z " fill="#047C39" transform="translate(114,112)"/>
<path d="M0 0 C3.65907504 0.68607657 5.35167676 1.98984314 8 4.5625 C9.38308781 7.32867563 9.11210196 9.57268 9.09765625 12.6640625 C9.09443359 13.87578125 9.09121094 15.0875 9.08789062 16.3359375 C9.07951172 17.60695312 9.07113281 18.87796875 9.0625 20.1875 C9.05798828 21.46625 9.05347656 22.745 9.04882812 24.0625 C9.03701203 27.22921292 9.02053815 30.39583356 9 33.5625 C8.67 33.5625 8.34 33.5625 8 33.5625 C8 25.3125 8 17.0625 8 8.5625 C7.34 8.5625 6.68 8.5625 6 8.5625 C5.67 7.2425 5.34 5.9225 5 4.5625 C3.94512152 7.72713543 3.81372282 10.14683938 3.71875 13.47265625 C3.68136719 14.62701172 3.64398438 15.78136719 3.60546875 16.97070312 C3.5350436 19.41080404 3.46473146 21.85090823 3.39453125 24.29101562 C3.35714844 25.44408203 3.31976563 26.59714844 3.28125 27.78515625 C3.23581055 29.37469116 3.23581055 29.37469116 3.18945312 30.99633789 C3 33.5625 3 33.5625 2 35.5625 C0.35 35.2325 -1.3 34.9025 -3 34.5625 C-3.72413373 31.25106994 -4.16354255 28.08405779 -4.31640625 24.69921875 C-4.35830078 23.81298828 -4.40019531 22.92675781 -4.44335938 22.01367188 C-4.48267578 21.10166016 -4.52199219 20.18964844 -4.5625 19.25 C-4.60568359 18.31865234 -4.64886719 17.38730469 -4.69335938 16.42773438 C-4.79897225 14.13945546 -4.90107752 11.85107628 -5 9.5625 C-5.99 10.2225 -6.98 10.8825 -8 11.5625 C-8.46707789 7.54563013 -8.32150834 5.99748188 -5.875 2.6875 C-3 0.5625 -3 0.5625 0 0 Z M0 7.5625 C-1.27305556 8.61121253 -1.27305556 8.61121253 -1.11352539 10.97094727 C-1.10828857 12.01307373 -1.10305176 13.0552002 -1.09765625 14.12890625 C-1.09443359 15.25361328 -1.09121094 16.37832031 -1.08789062 17.53710938 C-1.07951172 18.72111328 -1.07113281 19.90511719 -1.0625 21.125 C-1.05798828 22.31287109 -1.05347656 23.50074219 -1.04882812 24.72460938 C-1.03699675 27.67062226 -1.02051287 30.61653681 -1 33.5625 C-0.34 33.5625 0.32 33.5625 1 33.5625 C1 24.9825 1 16.4025 1 7.5625 C0.67 7.5625 0.34 7.5625 0 7.5625 Z " fill="#78B291" transform="translate(139,110.4375)"/>
<path d="M0 0 C0.33 0 0.66 0 1 0 C1 6.6 1 13.2 1 20 C2.32 19.67 3.64 19.34 5 19 C5.66 21.64 6.32 24.28 7 27 C8.32 26.67 9.64 26.34 11 26 C11.33 22.37 11.66 18.74 12 15 C11.01 15 10.02 15 9 15 C9 13.68 9 12.36 9 11 C11.64 11 14.28 11 17 11 C17 17.93 17 24.86 17 32 C16.34 32 15.68 32 15 32 C14.67 31.34 14.34 30.68 14 30 C13.01 30.66 12.02 31.32 11 32 C8.0625 32.375 8.0625 32.375 5 32 C2.15219381 29.76793569 1.15002334 28.45007001 0 25 C-0.08266486 23.08093083 -0.10740663 21.15910526 -0.09765625 19.23828125 C-0.09443359 18.12001953 -0.09121094 17.00175781 -0.08789062 15.84960938 C-0.07951172 14.68236328 -0.07113281 13.51511719 -0.0625 12.3125 C-0.05573242 10.54422852 -0.05573242 10.54422852 -0.04882812 8.74023438 C-0.03703273 5.82677211 -0.0205727 2.91341137 0 0 Z " fill="#1F824A" transform="translate(48,119)"/>
<path d="M0 0 C1.32 0.66 2.64 1.32 4 2 C4 4.31 4 6.62 4 9 C5.65 9 7.3 9 9 9 C9 6.69 9 4.38 9 2 C9.66 2 10.32 2 11 2 C11.25 8.625 11.25 8.625 9 12 C9.66 12.66 10.32 13.32 11 14 C11.3347168 15.93945312 11.3347168 15.93945312 11.44921875 18.28125 C11.49240234 19.12300781 11.53558594 19.96476562 11.58007812 20.83203125 C11.61552734 21.71246094 11.65097656 22.59289062 11.6875 23.5 C11.73455078 24.38042969 11.78160156 25.26085937 11.83007812 26.16796875 C12.13643973 32.72712054 12.13643973 32.72712054 11 35 C10.34 35 9.68 35 9 35 C9 28.07 9 21.14 9 14 C6.36 14 3.72 14 1 14 C1 15.32 1 16.64 1 18 C1.99 18 2.98 18 4 18 C4 21.63 4 25.26 4 29 C2.35 29.33 0.7 29.66 -1 30 C-3.17425477 25.65149046 -2.18496474 19.77642634 -2.1875 15 C-2.19974609 13.78570312 -2.21199219 12.57140625 -2.22460938 11.3203125 C-2.22654297 10.16273437 -2.22847656 9.00515625 -2.23046875 7.8125 C-2.23457764 6.74644531 -2.23868652 5.68039063 -2.24291992 4.58203125 C-2 2 -2 2 0 0 Z M0 2 C0 5.3 0 8.6 0 12 C1.32 11.67 2.64 11.34 4 11 C3.34 8.03 2.68 5.06 2 2 C1.34 2 0.68 2 0 2 Z M0 19 C0 21.97 0 24.94 0 28 C0.66 28 1.32 28 2 28 C3.04214691 23.38492226 3.04214691 23.38492226 2 19 C1.34 19 0.68 19 0 19 Z " fill="#DEECE3" transform="translate(56,116)"/>
<path d="M0 0 C1.32 0 2.64 0 4 0 C7.14535463 12.94650434 7.1443698 24.98810721 0.5 36.875 C-7.270186 48.97264107 -17.65385543 60.52733355 -30 68 C-30.66 67.67 -31.32 67.34 -32 67 C-31.05640625 66.25556641 -31.05640625 66.25556641 -30.09375 65.49609375 C-27.38382064 63.34529138 -24.68949492 61.17629144 -22 59 C-21.29746094 58.43796875 -20.59492188 57.8759375 -19.87109375 57.296875 C-9.59233598 48.7416261 0.30586028 36.46759653 3 23 C3.07911543 21.34010718 3.10778885 19.6773713 3.09765625 18.015625 C3.09443359 17.08105469 3.09121094 16.14648438 3.08789062 15.18359375 C3.07951172 14.21550781 3.07113281 13.24742188 3.0625 12.25 C3.05798828 11.26644531 3.05347656 10.28289063 3.04882812 9.26953125 C3.03706483 6.84629209 3.02062684 4.42317727 3 2 C-0.2129721 4.0849033 -0.2129721 4.0849033 -1.6875 7.5 C-3 10 -3 10 -4.875 10.84765625 C-6.44762114 11.33378745 -8.02761807 11.79654255 -9.61328125 12.23828125 C-11.97092089 12.99071943 -13.78379379 13.94355347 -15.875 15.25 C-16.90625 15.8275 -17.9375 16.405 -19 17 C-19.99 16.67 -20.98 16.34 -22 16 C-20.97519531 15.39671875 -19.95039063 14.7934375 -18.89453125 14.171875 C-17.53373595 13.36478262 -16.17306546 12.55747978 -14.8125 11.75 C-13.80219727 11.15638672 -13.80219727 11.15638672 -12.77148438 10.55078125 C-7.80958702 7.59784721 -3.25840705 4.88761057 0 0 Z " fill="#E4ECDF" transform="translate(233,30)"/>
<path d="M0 0 C3.0625 0.1875 3.0625 0.1875 5.0625 2.1875 C5.25018653 5.1167303 5.31803641 7.94978397 5.29296875 10.87890625 C5.29228142 12.16957253 5.29228142 12.16957253 5.2915802 13.48631287 C5.28855705 15.30623757 5.28066888 17.12615967 5.26831055 18.94604492 C5.25005148 21.74211724 5.24780085 24.53785866 5.24804688 27.33398438 C5.2431319 29.09896122 5.23730367 30.8639358 5.23046875 32.62890625 C5.22935593 33.47054825 5.2282431 34.31219025 5.22709656 35.17933655 C5.17854705 41.07145295 5.17854705 41.07145295 4.0625 42.1875 C0.5625 42.3125 0.5625 42.3125 -2.9375 42.1875 C-4.83373202 40.29126798 -4.06647626 37.52379641 -4.07644653 35.0012207 C-4.0744223 34.13456787 -4.07239807 33.26791504 -4.0703125 32.375 C-4.07126923 31.49094482 -4.07222595 30.60688965 -4.07321167 29.69604492 C-4.07389351 27.82307871 -4.07203893 25.95011014 -4.06787109 24.07714844 C-4.06252289 21.19981612 -4.06781593 18.32263992 -4.07421875 15.4453125 C-4.07355797 13.63020799 -4.07227681 11.81510357 -4.0703125 10 C-4.07233673 9.13334717 -4.07436096 8.26669434 -4.07644653 7.3737793 C-4.04832358 0.25840363 -4.04832358 0.25840363 0 0 Z M-1.9375 2.1875 C-1.9375 15.0575 -1.9375 27.9275 -1.9375 41.1875 C-0.2875 41.1875 1.3625 41.1875 3.0625 41.1875 C3.0625 28.3175 3.0625 15.4475 3.0625 2.1875 C1.4125 2.1875 -0.2375 2.1875 -1.9375 2.1875 Z " fill="#C4DCCD" transform="translate(73.9375,109.8125)"/>
<path d="M0 0 C0.33 0 0.66 0 1 0 C1.02187378 1.18420532 1.02187378 1.18420532 1.04418945 2.39233398 C1.34844329 17.16100881 1.7099573 31.54731242 5 46 C5.31710938 47.49466797 5.31710938 47.49466797 5.640625 49.01953125 C6.07044109 51.01817607 6.52974994 53.01048049 7 55 C7.66 51.7 8.32 48.4 9 45 C9.33 45 9.66 45 10 45 C10 48.96 10 52.92 10 57 C8.02 57.495 8.02 57.495 6 58 C3.2165915 48.9877016 1.24805619 40.3604214 0 31 C0 35.95 0 40.9 0 46 C-3 46 -3 46 -4.6875 44.5 C-5.120625 44.005 -5.55375 43.51 -6 43 C-5.67 42.34 -5.34 41.68 -5 41 C-4.34 41.66 -3.68 42.32 -3 43 C-2.98018066 42.01717041 -2.96036133 41.03434082 -2.93994141 40.02172852 C-2.86323566 36.33691991 -2.77462488 32.65247321 -2.68261719 28.96801758 C-2.64459343 27.38052574 -2.60969679 25.79295552 -2.578125 24.20532227 C-2.25129468 7.97104742 -2.25129468 7.97104742 0 0 Z " fill="#EDF2E4" transform="translate(171,29)"/>
<path d="M0 0 C6.37449944 -0.17464382 11.06359333 0.02604628 16.671875 3.15625 C16.341875 3.81625 16.011875 4.47625 15.671875 5.15625 C13.196875 4.66125 13.196875 4.66125 10.671875 4.15625 C10.671875 3.49625 10.671875 2.83625 10.671875 2.15625 C4.29254856 2.05280146 -2.07964816 2.10072101 -8.453125 2.40625 C-9.52820313 2.45265625 -10.60328125 2.4990625 -11.7109375 2.546875 C-14.47050736 2.86511088 -14.47050736 2.86511088 -15.5703125 5.140625 C-15.82039063 5.80578125 -16.07046875 6.4709375 -16.328125 7.15625 C-17.318125 7.65125 -17.318125 7.65125 -18.328125 8.15625 C-18.328125 7.49625 -18.328125 6.83625 -18.328125 6.15625 C-19.318125 6.48625 -20.308125 6.81625 -21.328125 7.15625 C-24.78178119 7.67755659 -28.23937242 8.14474504 -31.703125 8.59375 C-32.569375 8.779375 -33.435625 8.965 -34.328125 9.15625 C-34.658125 9.81625 -34.988125 10.47625 -35.328125 11.15625 C-34.668125 11.48625 -34.008125 11.81625 -33.328125 12.15625 C-32.66145833 14.15625 -31.99479167 16.15625 -31.328125 18.15625 C-29.81259347 20.45791675 -29.81259347 20.45791675 -28.328125 22.15625 C-31.65861622 20.72994692 -33.64551437 19.00610604 -36.015625 16.28125 C-36.61761719 15.60320312 -37.21960938 14.92515625 -37.83984375 14.2265625 C-39.34335475 12.13506426 -40.00348909 10.69831427 -40.328125 8.15625 C-38.64790805 6.47603305 -36.38053868 6.66620846 -34.078125 6.34375 C-29.4645495 5.6213396 -25.19811188 4.55885944 -20.765625 3.09375 C-13.75545647 0.85149633 -7.30152544 0.34279462 0 0 Z " fill="#6A8658" transform="translate(142.328125,79.84375)"/>
<path d="M0 0 C0.66 0.33 1.32 0.66 2 1 C1.3709375 1.73863281 0.741875 2.47726563 0.09375 3.23828125 C-0.77173743 4.26225735 -1.63624872 5.28705898 -2.5 6.3125 C-2.95125244 6.8477832 -3.40250488 7.38306641 -3.86743164 7.93457031 C-7.63253603 12.45083921 -11.01262821 17.14392646 -14.30859375 22.015625 C-15.14583984 22.99789062 -15.14583984 22.99789062 -16 24 C-16.99 24 -17.98 24 -19 24 C-20.46734561 26.12705947 -21.74764622 28.18938373 -23 30.4375 C-26.60507559 36.86835853 -26.60507559 36.86835853 -30 38 C-31.85039495 36.14960505 -31.26009196 33.29774425 -31.3125 30.8125 C-31.27297553 23.11313268 -29.8885994 16.20041382 -27 9 C-26.34 8.67 -25.68 8.34 -25 8 C-25.28875 9.11117187 -25.5775 10.22234375 -25.875 11.3671875 C-26.25061278 12.86963861 -26.62557787 14.37225173 -27 15.875 C-27.28617188 16.96554688 -27.28617188 16.96554688 -27.578125 18.078125 C-28.9800814 23.78609036 -29.22087995 29.13594402 -29 35 C-28.27296875 33.93523437 -27.5459375 32.87046875 -26.796875 31.7734375 C-21.66504908 24.33534713 -16.44412108 17.05558375 -10.5625 10.1875 C-10.07942383 9.62015137 -9.59634766 9.05280273 -9.09863281 8.46826172 C-6.30657992 5.26834822 -3.39696189 2.54618014 0 0 Z M-14 16 C-13 18 -13 18 -13 18 Z M-16 19 C-16 22 -16 22 -16 22 Z " fill="#E9EFE6" transform="translate(216,58)"/>
<path d="M0 0 C0.33 0 0.66 0 1 0 C1 9.24 1 18.48 1 28 C3.64 28 6.28 28 9 28 C9 29.32 9 30.64 9 32 C5.37 32 1.74 32 -2 32 C-3.11851921 27.52592316 -3.18384144 23.58051345 -3.1875 19 C-3.19974609 18.19304687 -3.21199219 17.38609375 -3.22460938 16.5546875 C-3.22654297 15.77351562 -3.22847656 14.99234375 -3.23046875 14.1875 C-3.23457764 13.47980469 -3.23868652 12.77210938 -3.24291992 12.04296875 C-2.96062323 9.66883935 -2.10973999 8.10260958 -1 6 C-0.61709538 4.00889599 -0.27395385 2.00899487 0 0 Z " fill="#077B38" transform="translate(179,118)"/>
<path d="M0 0 C1.32 0.66 2.64 1.32 4 2 C4.02907084 5.58331625 4.04682263 9.16660208 4.0625 12.75 C4.07087891 13.76578125 4.07925781 14.7815625 4.08789062 15.828125 C4.09111328 16.8078125 4.09433594 17.7875 4.09765625 18.796875 C4.10289307 19.69760742 4.10812988 20.59833984 4.11352539 21.52636719 C4.00762312 23.83389804 3.65132813 25.79134405 3 28 C1.68 27.67 0.36 27.34 -1 27 C-1.02905924 23.2500163 -1.04681874 19.50006163 -1.0625 15.75 C-1.07087891 14.68652344 -1.07925781 13.62304688 -1.08789062 12.52734375 C-1.09111328 11.50253906 -1.09433594 10.47773437 -1.09765625 9.421875 C-1.10289307 8.47924805 -1.10812988 7.53662109 -1.11352539 6.56542969 C-1.00968082 4.21876563 -0.66706529 2.24355522 0 0 Z " fill="#067B38" transform="translate(96,116)"/>
<path d="M0 0 C1.65 0 3.3 0 5 0 C5.66 2.31 6.32 4.62 7 7 C7.66 7 8.32 7 9 7 C9 8.65 9 10.3 9 12 C7.02 12.66 5.04 13.32 3 14 C2.67 13.67 2.34 13.34 2 13 C1.67 21.25 1.34 29.5 1 38 C2.32 38.33 3.64 38.66 5 39 C3.35 39 1.7 39 0 39 C0 26.13 0 13.26 0 0 Z " fill="#14753C" transform="translate(3,112)"/>
<path d="M0 0 C6.67104484 4.58401405 12.65569494 9.91099669 18 16 C18 16.66 18 17.32 18 18 C12.67250579 17.43412626 8.19450089 16.15630798 3.25 14.125 C2.59128906 13.86847656 1.93257812 13.61195312 1.25390625 13.34765625 C-2.06232399 12.00905622 -4.73271621 10.82564473 -7 8 C-6.505 8.165 -6.01 8.33 -5.5 8.5 C-1.96555911 9.20688818 1.39690701 9.06005155 5 9 C3.63016497 5.83884224 3.0109362 5.0072908 0 3 C0 2.01 0 1.02 0 0 Z " fill="#DDE176" transform="translate(137,50)"/>
<path d="M0 0 C0.33 0 0.66 0 1 0 C1.66 5.61 2.32 11.22 3 17 C2.01 16.34 1.02 15.68 0 15 C-0.33 17.31 -0.66 19.62 -1 22 C-2.65 22 -4.3 22 -6 22 C-5.67 15.73 -5.34 9.46 -5 3 C-3.515 3.99 -3.515 3.99 -2 5 C-1.34 5 -0.68 5 0 5 C0 3.35 0 1.7 0 0 Z M-4 18 C-3 20 -3 20 -3 20 Z " fill="#2A8952" transform="translate(39,117)"/>
<path d="M0 0 C2.31 0.66 4.62 1.32 7 2 C7 2.66 7 3.32 7 4 C7.71542969 4.24492188 8.43085938 4.48984375 9.16796875 4.7421875 C12.34583121 6.15359676 14.63646999 7.91281519 17.3125 10.125 C18.19550781 10.84945312 19.07851562 11.57390625 19.98828125 12.3203125 C20.98408203 13.15175781 20.98408203 13.15175781 22 14 C21.65213292 12.02463255 21.65213292 12.02463255 21 10 C20.34 9.67 19.68 9.34 19 9 C19 7.02 19 5.04 19 3 C21.67901932 5.31881505 22.66204403 7.31814468 23.6875 10.6875 C23.93886719 11.49574219 24.19023437 12.30398437 24.44921875 13.13671875 C24.63097656 13.75160156 24.81273437 14.36648437 25 15 C24.01 15.66 23.02 16.32 22 17 C22.825 17.928125 23.65 18.85625 24.5 19.8125 C27 22.625 27 22.625 27 26 C25.35 25.67 23.7 25.34 22 25 C22.99 24.67 23.98 24.34 25 24 C18.73448228 16.3859437 11.8752493 9.17769427 3.375 4.0625 C2.26125 3.381875 1.1475 2.70125 0 2 C0 1.34 0 0.68 0 0 Z " fill="#F2F3D5" transform="translate(130,44)"/>
<path d="M0 0 C1.98 0 3.96 0 6 0 C6 10.89 6 21.78 6 33 C5.67 33 5.34 33 5 33 C4.67 22.77 4.34 12.54 4 2 C3.01 1.67 2.02 1.34 1 1 C1 13.21 1 25.42 1 38 C3.31 37.34 5.62 36.68 8 36 C7.34 35.34 6.68 34.68 6 34 C8.31 34 10.62 34 13 34 C13 35.65 13 37.3 13 39 C8.71 39 4.42 39 0 39 C0 26.13 0 13.26 0 0 Z " fill="#1B7542" transform="translate(114,112)"/>
<path d="M0 0 C5.64124262 0.7803719 11.02895101 2.27495973 16.5 3.8125 C17.42425781 4.06064453 18.34851563 4.30878906 19.30078125 4.56445312 C26.69916435 6.6442561 31.69819237 9.29036101 37 15 C36.67 15.66 36.34 16.32 36 17 C35.63132813 16.55269531 35.26265625 16.10539062 34.8828125 15.64453125 C29.01085387 9.52464548 22.40856832 8.06500227 14.4375 6.140625 C10.13410625 5.09887035 6.1157173 3.62757911 2 2 C2.9353538 9.72473221 5.34997447 14.82102586 10 21 C10.66 21.99 11.32 22.98 12 24 C6.26345303 21.56631341 3.15713604 16.52466046 0.625 11 C-0.16139443 7.22530674 -0.13283629 3.85225247 0 0 Z " fill="#F3F5D9" transform="translate(112,30)"/>
<path d="M0 0 C5.28 0 10.56 0 16 0 C16 0.33 16 0.66 16 1 C14.35 1.33 12.7 1.66 11 2 C11.48750732 2.68175293 11.97501465 3.36350586 12.47729492 4.06591797 C14.31666048 7.61016926 14.37307153 9.96622339 14.36328125 13.9453125 C14.36377975 14.59700409 14.36427826 15.24869568 14.36479187 15.9201355 C14.36246233 17.29004993 14.35280013 18.65996954 14.33618164 20.02978516 C14.31249193 22.12571392 14.31564039 24.22037668 14.32226562 26.31640625 C14.27939359 36.58090961 14.27939359 36.58090961 12 40 C12.02618408 39.05680908 12.05236816 38.11361816 12.0793457 37.1418457 C12.16476922 33.62866855 12.22734298 30.11660092 12.2746582 26.6027832 C12.29974109 25.08470199 12.3338166 23.56674082 12.37719727 22.04907227 C12.43813293 19.86184035 12.46626895 17.67620961 12.48828125 15.48828125 C12.51446533 14.17384033 12.54064941 12.85939941 12.56762695 11.50512695 C11.85825472 7.12471526 10.45991353 5.68786933 7 3 C3.95691709 2.24984805 3.95691709 2.24984805 1 3 C-1.30275556 4.8670991 -2.67823871 6.35647741 -4 9 C-4.15067214 10.4465242 -4.24861036 11.8987934 -4.31640625 13.3515625 C-4.35830078 14.20234375 -4.40019531 15.053125 -4.44335938 15.9296875 C-4.48267578 16.81914063 -4.52199219 17.70859375 -4.5625 18.625 C-4.60568359 19.5221875 -4.64886719 20.419375 -4.69335938 21.34375 C-4.79956861 23.56234283 -4.90161194 25.7810488 -5 28 C-5.33 28 -5.66 28 -6 28 C-6.0875127 24.77100574 -6.14056146 21.54231884 -6.1875 18.3125 C-6.21263672 17.40048828 -6.23777344 16.48847656 -6.26367188 15.54882812 C-6.35863331 6.8440302 -6.35863331 6.8440302 -3 3 C-2.01 2.67 -1.02 2.34 0 2 C0 1.34 0 0.68 0 0 Z " fill="#F0F5F2" transform="translate(135,109)"/>
<path d="M0 0 C0.99 0.33 1.98 0.66 3 1 C3.33 9.58 3.66 18.16 4 27 C3.01 27 2.02 27 1 27 C1 26.34 1 25.68 1 25 C0.34 25 -0.32 25 -1 25 C-1.02886984 21.02084841 -1.04675406 17.04172347 -1.0625 13.0625 C-1.07087891 11.92619141 -1.07925781 10.78988281 -1.08789062 9.61914062 C-1.09111328 8.53955078 -1.09433594 7.45996094 -1.09765625 6.34765625 C-1.10289307 5.34742432 -1.10812988 4.34719238 -1.11352539 3.31665039 C-1 1 -1 1 0 0 Z " fill="#077A38" transform="translate(85,120)"/>
<path d="M0 0 C0 7.92 0 15.84 0 24 C-0.33 23.01 -0.66 22.02 -1 21 C-2.32 21.33 -3.64 21.66 -5 22 C-5 15.07 -5 8.14 -5 1 C-1 0 -1 0 0 0 Z " fill="#077B37" transform="translate(54,117)"/>
<path d="M0 0 C7.61478149 9.36383495 6.86151137 22.55827457 6 34 C4.97729192 42.53027138 2.70073274 50.85949351 0 59 C-0.33 59 -0.66 59 -1 59 C-0.5803476 53.9641712 0.12109543 49.40569621 1.52734375 44.55078125 C3.29257282 37.63116829 3.37488536 31.04425772 3.25 23.9375 C3.24484375 22.72900391 3.2396875 21.52050781 3.234375 20.27539062 C3.28363389 14.03673067 3.28363389 14.03673067 2 8 C1.01 7.67 0.02 7.34 -1 7 C-0.34 6.67 0.32 6.34 1 6 C0.67 4.02 0.34 2.04 0 0 Z " fill="#EAF0E0" transform="translate(182,15)"/>
<path d="M0 0 C1.32 0 2.64 0 4 0 C4 9.24 4 18.48 4 28 C2.68 28.33 1.36 28.66 0 29 C-1.80279191 27.19720809 -1.13036605 24.45952299 -1.1328125 22.03125 C-1.13410156 20.82082031 -1.13539062 19.61039063 -1.13671875 18.36328125 C-1.13285156 17.08839844 -1.12898438 15.81351563 -1.125 14.5 C-1.12886719 13.22511719 -1.13273437 11.95023438 -1.13671875 10.63671875 C-1.13542969 9.42628906 -1.13414063 8.21585938 -1.1328125 6.96875 C-1.13168457 5.84919922 -1.13055664 4.72964844 -1.12939453 3.57617188 C-1 1 -1 1 0 0 Z M1 2 C-0.82671197 5.65342394 -0.18470722 9.97839159 -0.1875 14 C-0.19974609 14.928125 -0.21199219 15.85625 -0.22460938 16.8125 C-0.22654297 17.699375 -0.22847656 18.58625 -0.23046875 19.5 C-0.23457764 20.3146875 -0.23868652 21.129375 -0.24291992 21.96875 C-0.18511386 24.22697834 -0.18511386 24.22697834 2 26 C3.39835636 18.6586291 5.2377554 8.35663309 1 2 Z " fill="#F1F6F3" transform="translate(90,117)"/>
<path d="M0 0 C0.33 0 0.66 0 1 0 C1.03738281 0.68964844 1.07476562 1.37929688 1.11328125 2.08984375 C1.64392636 12.63474417 1.64392636 12.63474417 6.58984375 21.55078125 C8 23 8 23 8.1875 26.1875 C8.125625 27.115625 8.06375 28.04375 8 29 C8.66 28.67 9.32 28.34 10 28 C10.33 20.41 10.66 12.82 11 5 C11.33 5 11.66 5 12 5 C12 14.9 12 24.8 12 35 C3.75069466 26.75069466 -0.08706879 17.77060027 -0.125 6.0625 C-0.09310129 4.04148888 -0.05469084 2.0205228 0 0 Z " fill="#99C257" transform="translate(157,38)"/>
<path d="M0 0 C0.33 0.66 0.66 1.32 1 2 C1.66 2 2.32 2 3 2 C3 3.32 3 4.64 3 6 C3.66 6.33 4.32 6.66 5 7 C3.70886391 12.75142442 1.6791863 16.37743259 -2 21 C-2.33 21 -2.66 21 -3 21 C-3.23191047 14.10710557 -3.11022849 7.6233449 -1 1 C-0.67 0.67 -0.34 0.34 0 0 Z " fill="#85AF72" transform="translate(189,73)"/>
<path d="M0 0 C2.64 0 5.28 0 8 0 C8 3.3 8 6.6 8 10 C7.01 10.33 6.02 10.66 5 11 C4.67 10.67 4.34 10.34 4 10 C3.67 11.65 3.34 13.3 3 15 C1.68 14.34 0.36 13.68 -1 13 C-0.34 12.67 0.32 12.34 1 12 C0.34 11.67 -0.32 11.34 -1 11 C-0.835 10.29875 -0.67 9.5975 -0.5 8.875 C0.02415338 5.86111806 0.07099683 3.05286375 0 0 Z " fill="#077C37" transform="translate(31,112)"/>
<path d="M0 0 C2.64 0 5.28 0 8 0 C8 6.93 8 13.86 8 21 C7.34 21 6.68 21 6 21 C3.74001405 17.40537669 3.79131913 14.43404325 3.875 10.25 C3.90207031 8.49429688 3.90207031 8.49429688 3.9296875 6.703125 C3.95289063 5.81109375 3.97609375 4.9190625 4 4 C2.68 4 1.36 4 0 4 C0 2.68 0 1.36 0 0 Z " fill="#057B34" transform="translate(57,130)"/>
<path d="M0 0 C2 1.375 2 1.375 4 3 C4 3.66 4 4.32 4 5 C4.78375 5.0825 5.5675 5.165 6.375 5.25 C9 6 9 6 10.125 8 C10.41375 8.66 10.7025 9.32 11 10 C11.99 10.33 12.98 10.66 14 11 C10.2505911 12.24980297 6.92294754 12.46585002 3 12 C1 10.6875 1 10.6875 0 9 C0 8.01 0 7.02 0 6 C-0.99 6 -1.98 6 -3 6 C-1.125 1.125 -1.125 1.125 0 0 Z " fill="#D4DC28" transform="translate(131,48)"/>
<path d="M0 0 C0.33 0 0.66 0 1 0 C0.66884322 6.88806109 -0.74121248 13.35964882 -2.47851562 20.0078125 C-3.93981162 25.62818172 -5.07657437 31.26504084 -6 37 C-8 36 -8 36 -8.66796875 34.07421875 C-8.83941406 33.28660156 -9.01085937 32.49898437 -9.1875 31.6875 C-9.36667969 30.90761719 -9.54585937 30.12773438 -9.73046875 29.32421875 C-10.01729973 26.85082117 -9.95884553 25.29818533 -9 23 C-8.01 22.67 -7.02 22.34 -6 22 C-5.26025943 20.20043092 -5.26025943 20.20043092 -4.9375 18 C-4.78410156 17.19691406 -4.63070312 16.39382812 -4.47265625 15.56640625 C-4.31667969 14.71949219 -4.16070312 13.87257813 -4 13 C-3.63172603 11.31101938 -3.25706915 9.62341353 -2.875 7.9375 C-2.62363281 6.80634766 -2.62363281 6.80634766 -2.3671875 5.65234375 C-2.24601563 5.10707031 -2.12484375 4.56179687 -2 4 C-1.34 4 -0.68 4 0 4 C0 2.68 0 1.36 0 0 Z " fill="#94C454" transform="translate(185,48)"/>
<path d="M0 0 C6.55190069 0.5618944 6.55190069 0.5618944 9.1015625 2.95703125 C10.0390625 5.01953125 10.0390625 5.01953125 10.0390625 7.01953125 C9.0490625 6.68953125 8.0590625 6.35953125 7.0390625 6.01953125 C6.04450341 9.00320851 5.84346618 11.21995045 5.72265625 14.34375 C5.68076172 15.37177734 5.63886719 16.39980469 5.59570312 17.45898438 C5.55638672 18.53083984 5.51707031 19.60269531 5.4765625 20.70703125 C5.43337891 21.79048828 5.39019531 22.87394531 5.34570312 23.99023438 C5.23959412 26.66653916 5.13753889 29.34293651 5.0390625 32.01953125 C4.7090625 32.01953125 4.3790625 32.01953125 4.0390625 32.01953125 C4.0390625 23.43953125 4.0390625 14.85953125 4.0390625 6.01953125 C2.0590625 6.01953125 0.0790625 6.01953125 -1.9609375 6.01953125 C-2.34312517 4.36338468 -2.67488852 2.69496101 -2.9609375 1.01953125 C-1.9609375 0.01953125 -1.9609375 0.01953125 0 0 Z " fill="#2D8B56" transform="translate(89.9609375,110.98046875)"/>
<path d="M0 0 C1.18384277 0.00616333 1.18384277 0.00616333 2.39160156 0.01245117 C3.69484375 0.01535156 3.69484375 0.01535156 5.02441406 0.01831055 C5.93449219 0.03055664 6.84457031 0.04280273 7.78222656 0.05541992 C8.67683594 0.05606445 9.57144531 0.05670898 10.49316406 0.05737305 C15.11257999 0.08803289 19.48925221 0.30273483 24.03222656 1.24291992 C22.05222656 2.23291992 22.05222656 2.23291992 20.03222656 3.24291992 C22.67222656 3.90291992 25.31222656 4.56291992 28.03222656 5.24291992 C23.89658943 6.27682921 21.67447234 6.08925679 17.51660156 5.46557617 C16.26621094 5.28188477 15.01582031 5.09819336 13.72753906 4.90893555 C12.42558594 4.70977539 11.12363281 4.51061523 9.78222656 4.30541992 C8.45160272 4.10744511 7.12087432 3.91017164 5.79003906 3.71362305 C2.53633953 3.23028362 -0.71611713 2.73978871 -3.96777344 2.24291992 C-1.96777344 0.24291992 -1.96777344 0.24291992 0 0 Z " fill="#D7DCD1" transform="translate(137.9677734375,90.757080078125)"/>
<path d="M0 0 C0.33 0 0.66 0 1 0 C2.38571429 9.18035714 2.38571429 9.18035714 1 12.125 C0.04367957 14.87442123 -0.0801108 16.34857357 0 19.1875 C0.11911723 23.62461691 -0.58931724 27.61509526 -1.5625 31.93359375 C-2.06904293 33.97406917 -2.06904293 33.97406917 -2 36 C-1.01 36 -0.02 36 1 36 C1 36.99 1 37.98 1 39 C-0.98 39 -2.96 39 -5 39 C-1.83112696 12.0423526 -1.83112696 12.0423526 0 0 Z " fill="#328958" transform="translate(30,112)"/>
<path d="M0 0 C0.33 0 0.66 0 1 0 C1.33 8.25 1.66 16.5 2 25 C1.34 25.33 0.68 25.66 0 26 C-0.66 25.67 -1.32 25.34 -2 25 C-2.05786668 21.20839703 -2.09355054 17.41690689 -2.125 13.625 C-2.14175781 12.54476562 -2.15851563 11.46453125 -2.17578125 10.3515625 C-2.18222656 9.3203125 -2.18867188 8.2890625 -2.1953125 7.2265625 C-2.20578613 6.27346191 -2.21625977 5.32036133 -2.22705078 4.33837891 C-2 2 -2 2 0 0 Z " fill="#047D36" transform="translate(134,119)"/>
<path d="M0 0 C0.99 0.33 1.98 0.66 3 1 C2.88623383 3.12563103 2.75864369 5.2505261 2.625 7.375 C2.55539063 8.55835938 2.48578125 9.74171875 2.4140625 10.9609375 C2 14 2 14 0 16 C-0.33 16.66 -0.66 17.32 -1 18 C-2.32 17.67 -3.64 17.34 -5 17 C-5 15.68 -5 14.36 -5 13 C-4.34 13 -3.68 13 -3 13 C-2.87625 12.154375 -2.7525 11.30875 -2.625 10.4375 C-1.97229673 6.84763202 -1.04752537 3.49175125 0 0 Z " fill="#107D3F" transform="translate(164,132)"/>
<path d="M0 0 C-3.88151384 1.539221 -7.31277244 2.88754458 -11.4375 3.5625 C-12.283125 3.706875 -13.12875 3.85125 -14 4 C-14.33 4.66 -14.66 5.32 -15 6 C-14.34 6.33 -13.68 6.66 -13 7 C-12.33333333 9 -11.66666667 11 -11 13 C-9.48446847 15.30166675 -9.48446847 15.30166675 -8 17 C-11.33049122 15.57369692 -13.31738937 13.84985604 -15.6875 11.125 C-16.28949219 10.44695312 -16.89148438 9.76890625 -17.51171875 9.0703125 C-19.01522975 6.97881426 -19.67536409 5.54206427 -20 3 C-18.21836591 1.21836591 -15.53979965 1.37061673 -13.125 1 C-2.2044357 -0.68413522 -2.2044357 -0.68413522 0 0 Z " fill="#E1E4DE" transform="translate(122,85)"/>
<path d="M0 0 C2.67578125 1.8125 2.67578125 1.8125 5.3125 4 C6.19550781 4.721875 7.07851562 5.44375 7.98828125 6.1875 C8.98408203 7.0846875 8.98408203 7.0846875 10 8 C10 8.33 10 8.66 10 9 C-1.52164009 8.03644647 -1.52164009 8.03644647 -7 7 C-4.38058783 5.25372522 -2.96175123 4.61277612 0 4 C-2.11785113 2.88214887 -2.11785113 2.88214887 -5 2 C-5.66 1.34 -6.32 0.68 -7 0 C-4.22015906 -1.38992047 -2.95814707 -0.88787098 0 0 Z " fill="#5D8449" transform="translate(163,85)"/>
<path d="M0 0 C0.33 0 0.66 0 1 0 C1 3.63 1 7.26 1 11 C3.31 11 5.62 11 8 11 C8 12.65 8 14.3 8 16 C5.69 16 3.38 16 1 16 C1 20.29 1 24.58 1 29 C0.67 29 0.34 29 0 29 C0 19.43 0 9.86 0 0 Z " fill="#237F49" transform="translate(180,117)"/>
<path d="M0 0 C3.29420535 4.94130803 3.57544336 11.51246451 2.61328125 17.34375 C2.0625 19.25 2.0625 19.25 1 22 C0.01 22 -0.98 22 -2 22 C-3.15564727 18.55730253 -2.81697294 16.14587374 -2.0625 12.625 C-1.26698287 8.65802125 -0.89321697 5.05775515 -1 1 C-0.67 0.67 -0.34 0.34 0 0 Z " fill="#067B38" transform="translate(30,126)"/>
<path d="M0 0 C1.65 0 3.3 0 5 0 C5.53181175 2.24743045 6.05007126 4.49807102 6.5625 6.75 C6.85253906 8.00296875 7.14257812 9.2559375 7.44140625 10.546875 C8 14 8 14 7 18 C6.34 14.7 5.68 11.4 5 8 C4.01 8 3.02 8 2 8 C2 9.65 2 11.3 2 13 C1.67 13 1.34 13 1 13 C0.67 8.71 0.34 4.42 0 0 Z " fill="#24834B" transform="translate(152,112)"/>
<path d="M0 0 C0.99 0.33 1.98 0.66 3 1 C2.67 4.96 2.34 8.92 2 13 C4.31 13.33 6.62 13.66 9 14 C9 15.32 9 16.64 9 18 C6.03 18 3.06 18 0 18 C0.33 16.68 0.66 15.36 1 14 C0.91515063 11.58042447 0.76355832 9.16269988 0.5625 6.75 C0.46066406 5.48671875 0.35882812 4.2234375 0.25390625 2.921875 C0.17011719 1.95765625 0.08632813 0.9934375 0 0 Z " fill="#087B3D" transform="translate(31,126)"/>
<path d="M0 0 C0.66 0 1.32 0 2 0 C3.04389037 4.29247719 3.18339346 8.48099941 3.1875 12.875 C3.19974609 13.55691406 3.21199219 14.23882812 3.22460938 14.94140625 C3.23808054 19.65631519 2.47921101 23.52144019 1 28 C0.67 28 0.34 28 0 28 C0.165 26.700625 0.33 25.40125 0.5 24.0625 C1.78938467 15.12176161 1.78938467 15.12176161 -1 7 C-1.66 6.67 -2.32 6.34 -3 6 C-2.42655063 3.13275314 -2.1385485 2.1385485 0 0 Z " fill="#77AA5D" transform="translate(234,32)"/>
<path d="M0 0 C1.4540625 0.0309375 1.4540625 0.0309375 2.9375 0.0625 C2.9375 0.3925 2.9375 0.7225 2.9375 1.0625 C1.2875 1.0625 -0.3625 1.0625 -2.0625 1.0625 C-2.0625 8.6525 -2.0625 16.2425 -2.0625 24.0625 C-3.96568884 21.20771674 -4.5244099 19.64308692 -5.1875 16.375 C-5.35507813 15.56675781 -5.52265625 14.75851563 -5.6953125 13.92578125 C-5.81648437 13.31089844 -5.93765625 12.69601563 -6.0625 12.0625 C-5.7325 12.0625 -5.4025 12.0625 -5.0625 12.0625 C-5.00191406 11.28003906 -4.94132813 10.49757813 -4.87890625 9.69140625 C-4.79511719 8.67949219 -4.71132812 7.66757813 -4.625 6.625 C-4.54378906 5.61566406 -4.46257813 4.60632813 -4.37890625 3.56640625 C-3.91554584 -0.10043357 -3.78745586 0.07729502 0 0 Z " fill="#CDE4D7" transform="translate(18.0625,109.9375)"/>
<path d="M0 0 C1 3 1 3 1 6 C4.465 5.505 4.465 5.505 8 5 C5.71969913 8.60047505 3.88502931 9.46405818 0 11 C-2.1082108 12.56624151 -4.02877911 14.25799084 -6 16 C-5.37183502 12.05050296 -4.1354471 8.80107972 -2.4375 5.1875 C-1.98246094 4.21167969 -1.52742187 3.23585938 -1.05859375 2.23046875 C-0.70925781 1.49441406 -0.35992187 0.75835937 0 0 Z " fill="#98C087" transform="translate(193,93)"/>
<path d="M0 0 C0.66 0.33 1.32 0.66 2 1 C2 2.98 2 4.96 2 7 C2.99 7.33 3.98 7.66 5 8 C5.33 9.65 5.66 11.3 6 13 C0.92351825 10.21612291 -3.4833069 6.59170584 -8 3 C-5.29120665 1.64560332 -2.99066732 1.93498549 0 2 C0 1.34 0 0.68 0 0 Z " fill="#D7DB61" transform="translate(147,46)"/>
<path d="M0 0 C2.66726716 2.66726716 3.40327218 5.33509408 4.6875 8.875 C5.14511719 10.10992187 5.60273438 11.34484375 6.07421875 12.6171875 C6.93330009 15.75627797 7.21775181 17.06263502 6 20 C3 13.375 3 13.375 3 10 C2.34 10 1.68 10 1 10 C1 13.3 1 16.6 1 20 C0.67 20 0.34 20 0 20 C0 13.4 0 6.8 0 0 Z " fill="#E6F0EA" transform="translate(9,131)"/>
<path d="M0 0 C0.66 0.66 1.32 1.32 2 2 C-1.3 5.96 -4.6 9.92 -8 14 C-9.56083178 9.31750465 -8.94414669 6.37433005 -7 2 C-6.34 2.33 -5.68 2.66 -5 3 C-2.37612865 1.60907108 -2.37612865 1.60907108 0 0 Z " fill="#71AE54" transform="translate(207,63)"/>
<path d="M0 0 C1.47906892 -0.02689216 2.95827483 -0.04634621 4.4375 -0.0625 C5.26121094 -0.07410156 6.08492187 -0.08570313 6.93359375 -0.09765625 C9 0 9 0 10 1 C10.37925315 4.13072223 10.46972287 7.28857104 10.625 10.4375 C10.6765625 11.32244141 10.728125 12.20738281 10.78125 13.11914062 C10.82507813 13.96541016 10.86890625 14.81167969 10.9140625 15.68359375 C10.9548291 16.46275146 10.9955957 17.24190918 11.03759766 18.04467773 C11 20 11 20 10 22 C9.34 22 8.68 22 8 22 C8 15.07 8 8.14 8 1 C5.36 1 2.72 1 0 1 C0 0.67 0 0.34 0 0 Z " fill="#C3DACB" transform="translate(57,129)"/>
<path d="M0 0 C3.18775058 0.3099766 6.3751491 0.62344236 9.5625 0.9375 C10.90538086 1.06801758 10.90538086 1.06801758 12.27539062 1.20117188 C17.20552409 1.68876749 22.10211759 2.2542319 27 3 C27 3.33 27 3.66 27 4 C24.41718164 4.22224251 21.83477813 4.42823488 19.25 4.625 C18.52039063 4.68945312 17.79078125 4.75390625 17.0390625 4.8203125 C13.03141504 5.11177777 10.44297782 5.09037939 7 3 C4.33646245 2.48479018 1.70500869 2.27050087 -1 2 C-0.67 1.34 -0.34 0.68 0 0 Z " fill="#7F966D" transform="translate(130,92)"/>
<path d="M0 0 C2 3 2 3 2 6 C2.66 6.33 3.32 6.66 4 7 C3.43945339 10.36327963 2.58158962 12.99112219 1 16 C0.32942113 14.2097939 -0.3363469 12.41778511 -1 10.625 C-1.37125 9.62726563 -1.7425 8.62953125 -2.125 7.6015625 C-3 5 -3 5 -3 3 C-1.5 1.375 -1.5 1.375 0 0 Z " fill="#0D7E40" transform="translate(13,128)"/>
<path d="M0 0 C0.33 0 0.66 0 1 0 C1 9.24 1 18.48 1 28 C-0.65 28 -2.3 28 -4 28 C-3.67 26.35 -3.34 24.7 -3 23 C-2.01 23 -1.02 23 0 23 C0 15.41 0 7.82 0 0 Z " fill="#0F7636" transform="translate(76,123)"/>
<path d="M0 0 C0.33 0.66 0.66 1.32 1 2 C1.66 2 2.32 2 3 2 C3 3.32 3 4.64 3 6 C3.66 6.33 4.32 6.66 5 7 C4.8125 8.8125 4.8125 8.8125 4 11 C1.4375 12.75 1.4375 12.75 -1 14 C-2.30197811 11.39604377 -1.76237361 10.34827143 -1.0625 7.5625 C-0.39268748 4.86994238 0 2.79777827 0 0 Z " fill="#65AE43" transform="translate(189,73)"/>
<path d="M0 0 C5.50047634 6.50056295 5.2609064 13.27288765 5.125 21.375 C5.11597656 22.39722656 5.10695312 23.41945313 5.09765625 24.47265625 C5.0742043 26.98201522 5.04138355 29.49088336 5 32 C4.67 32 4.34 32 4 32 C3.97494385 31.37955811 3.9498877 30.75911621 3.92407227 30.11987305 C3.80803279 27.30887603 3.68534241 24.49820759 3.5625 21.6875 C3.52318359 20.71103516 3.48386719 19.73457031 3.44335938 18.72851562 C3.40146484 17.79072266 3.35957031 16.85292969 3.31640625 15.88671875 C3.27974854 15.02264404 3.24309082 14.15856934 3.20532227 13.26831055 C3.07252646 10.8352174 3.07252646 10.8352174 2 8 C1.01 7.67 0.02 7.34 -1 7 C-0.34 6.67 0.32 6.34 1 6 C0.67 4.02 0.34 2.04 0 0 Z " fill="#CCDEAF" transform="translate(182,15)"/>
<path d="M0 0 C0 1.65 0 3.3 0 5 C-0.66 5 -1.32 5 -2 5 C-1.73323796 6.98491642 -1.73323796 6.98491642 -1 9 C-0.01 9.33 0.98 9.66 2 10 C2 8.68 2 7.36 2 6 C2.66 6 3.32 6 4 6 C4 7.65 4 9.3 4 11 C1.36 11 -1.28 11 -4 11 C-4 7.7 -4 4.4 -4 1 C-1 0 -1 0 0 0 Z " fill="#197C45" transform="translate(161,140)"/>
<path d="M0 0 C2.64 0 5.28 0 8 0 C8 6.93 8 13.86 8 21 C7.34 21 6.68 21 6 21 C4.99043362 17.97130085 5.00484916 16.80526271 5.4375 13.75 C5.9436792 9.78492957 6.08497448 5.99380064 6 2 C4.68 2 3.36 2 2 2 C2.33 2.66 2.66 3.32 3 4 C2.01 4 1.02 4 0 4 C0 2.68 0 1.36 0 0 Z " fill="#187A3F" transform="translate(57,130)"/>
<path d="M0 0 C2.66315194 2.66315194 2.94426493 4.65344068 3.09765625 8.359375 C3.08605469 9.14828125 3.07445312 9.9371875 3.0625 10.75 C3.05347656 11.54921875 3.04445313 12.3484375 3.03515625 13.171875 C3.01775391 14.07679688 3.01775391 14.07679688 3 15 C1.68 15 0.36 15 -1 15 C-1.09038099 9.84828377 -0.84681133 5.08086796 0 0 Z M1 11 C2 13 2 13 2 13 Z " fill="#E4EFE8" transform="translate(34,124)"/>
<path d="M0 0 C0.33 0 0.66 0 1 0 C1 9.9 1 19.8 1 30 C-0.32 29.01 -1.64 28.02 -3 27 C-3 26.01 -3 25.02 -3 24 C-2.34 23.67 -1.68 23.34 -1 23 C-0.67 15.41 -0.34 7.82 0 0 Z " fill="#A6C772" transform="translate(168,43)"/>
<path d="M0 0 C0.33 0 0.66 0 1 0 C1 6.93 1 13.86 1 21 C0.67 19.68 0.34 18.36 0 17 C-0.66 17 -1.32 17 -2 17 C-2.21824777 10.9981863 -1.5056904 5.80766296 0 0 Z " fill="#D9EABE" transform="translate(171,29)"/>
<path d="M0 0 C0.66 0.33 1.32 0.66 2 1 C1.57847656 1.42410156 1.15695313 1.84820312 0.72265625 2.28515625 C-3.23246072 6.51945795 -4.7628617 9.19011172 -5 15 C-5.33 15 -5.66 15 -6 15 C-6 13.35 -6 11.7 -6 10 C-10.29 10 -14.58 10 -19 10 C-19 9.67 -19 9.34 -19 9 C-15.37 9 -11.74 9 -8 9 C-8 8.34 -8 7.68 -8 7 C-6.25 5.2734375 -6.25 5.2734375 -4 3.375 C-3.2575 2.74335937 -2.515 2.11171875 -1.75 1.4609375 C-0.88375 0.73777344 -0.88375 0.73777344 0 0 Z " fill="#D1E2D4" transform="translate(194,102)"/>
<path d="M0 0 C0.33 0 0.66 0 1 0 C1.33 1.65 1.66 3.3 2 5 C2.33 5 2.66 5 3 5 C3 7.97 3 10.94 3 14 C3.66 14.33 4.32 14.66 5 15 C1.04 15 -2.92 15 -7 15 C-7 14.67 -7 14.34 -7 14 C-5.02 13.67 -3.04 13.34 -1 13 C-0.67 8.71 -0.34 4.42 0 0 Z " fill="#F9FAF9" transform="translate(22,137)"/>
<path d="M0 0 C2.60607392 0.61778047 5.20965697 1.24387211 7.8125 1.875 C8.55048828 2.04902344 9.28847656 2.22304688 10.04882812 2.40234375 C13.49717037 3.24492511 16.01928362 4.01285575 19 6 C13 5.33333333 7 4.66666667 1 4 C0.67 5.32 0.34 6.64 0 8 C0 5.36 0 2.72 0 0 Z " fill="#D3D850" transform="translate(114,32)"/>
<path d="M0 0 C0.33 0.99 0.66 1.98 1 3 C-1.31197526 5.31197526 -2.69201727 5.60942587 -5.8125 6.4375 C-9.65158005 7.51620405 -12.58738631 8.93174928 -16 11 C-16.99 10.67 -17.98 10.34 -19 10 C-13.46262818 6.5572477 -8.06734873 3.40165887 -2 1 C-1.34 0.67 -0.68 0.34 0 0 Z " fill="#AFCCA1" transform="translate(230,36)"/>
<path d="M0 0 C1.5625 2.34375 1.5625 2.34375 3.125 4.6875 C6.21662793 6.85163955 9.30088792 6.18192354 13 6 C13.33 5.34 13.66 4.68 14 4 C14.33 4.99 14.66 5.98 15 7 C15.99 7.33 16.98 7.66 18 8 C16.10688117 8.25060425 14.21022961 8.47460633 12.3125 8.6875 C11.25675781 8.81511719 10.20101562 8.94273437 9.11328125 9.07421875 C5.47542482 8.98749444 3.82716769 8.25353946 1 6 C0.1875 2.8125 0.1875 2.8125 0 0 Z " fill="#DDEAE3" transform="translate(48,144)"/>
<path d="M0 0 C0.33 0 0.66 0 1 0 C0.38857603 7.45937249 0.38857603 7.45937249 -1.4375 10 C-3 11 -3 11 -5 11 C-6.125 5.25 -6.125 5.25 -5 3 C-3.35 3.33 -1.7 3.66 0 4 C0 2.68 0 1.36 0 0 Z " fill="#147C40" transform="translate(99,140)"/>
<path d="M0 0 C1.79379098 0.44994757 3.58498928 0.91024143 5.375 1.375 C6.37273437 1.63023438 7.37046875 1.88546875 8.3984375 2.1484375 C11 3 11 3 13 5 C9.37 5.33 5.74 5.66 2 6 C1.34 4.02 0.68 2.04 0 0 Z " fill="#698455" transform="translate(169,98)"/>
<path d="M0 0 C1.9451 2.91765 2.45276317 4.62537285 3 8 C3.66 8 4.32 8 5 8 C4.67 8.99 4.34 9.98 4 11 C3.01 11.33 2.02 11.66 1 12 C1 13.65 1 15.3 1 17 C0.34 17 -0.32 17 -1 17 C-0.67 11.39 -0.34 5.78 0 0 Z " fill="#2B8952" transform="translate(163,122)"/>
<path d="M0 0 C4 2 4 2 6 5 C4.68 5.33 3.36 5.66 2 6 C1.67 7.65 1.34 9.3 1 11 C0.34 11 -0.32 11 -1 11 C-0.67 7.37 -0.34 3.74 0 0 Z " fill="#9FC45F" transform="translate(168,2)"/>
<path d="M0 0 C0.99 0 1.98 0 3 0 C5 2 5 2 5.125 5.125 C5.08375 6.07375 5.0425 7.0225 5 8 C3.35 8 1.7 8 0 8 C0 5.36 0 2.72 0 0 Z " fill="#167539" transform="translate(60,117)"/>
<path d="M0 0 C0.99 0 1.98 0 3 0 C3 1.32 3 2.64 3 4 C3.66 4.33 4.32 4.66 5 5 C1.91111478 7.05925681 1.29064073 7.2390374 -2.1875 7.125 C-4.0746875 7.063125 -4.0746875 7.063125 -6 7 C-4.68 6.01 -3.36 5.02 -2 4 C-2.33 3.34 -2.66 2.68 -3 2 C-2.01 2 -1.02 2 0 2 C0 1.34 0 0.68 0 0 Z " fill="#177E45" transform="translate(141,144)"/>
<path d="M0 0 C0.99 0 1.98 0 3 0 C3 0.66 3 1.32 3 2 C3.66 2.33 4.32 2.66 5 3 C5.66666667 5 6.33333333 7 7 9 C8.51553153 11.30166675 8.51553153 11.30166675 10 13 C6.6005393 11.54308827 4.33627611 9.8814072 2 7 C0.75 3.25 0.75 3.25 0 0 Z " fill="#A3B398" transform="translate(104,89)"/>
<path d="M0 0 C2.31 0.66 4.62 1.32 7 2 C7 2.66 7 3.32 7 4 C7.804375 4.28875 8.60875 4.5775 9.4375 4.875 C12 6 12 6 13 8 C12.34 8.66 11.68 9.32 11 10 C10.37351563 9.50628906 9.74703125 9.01257812 9.1015625 8.50390625 C8.28429687 7.86324219 7.46703125 7.22257812 6.625 6.5625 C5.81289062 5.92441406 5.00078125 5.28632812 4.1640625 4.62890625 C2.10601894 2.97776453 2.10601894 2.97776453 0 2 C0 1.34 0 0.68 0 0 Z " fill="#ECEFAB" transform="translate(130,44)"/>
<path d="M0 0 C1.5 1 1.5 1 3 3 C3.27345479 5.71846235 3.13491285 8.25677199 3 11 C1.68 10.34 0.36 9.68 -1 9 C-1.09765625 2.84765625 -1.09765625 2.84765625 -1 1 C-0.67 0.67 -0.34 0.34 0 0 Z " fill="#097A37" transform="translate(39,131)"/>
<path d="M0 0 C0 1.65 0 3.3 0 5 C-1.98 5.66 -3.96 6.32 -6 7 C-6.625 5.125 -6.625 5.125 -7 3 C-4.42280223 0.42280223 -3.67620068 0 0 0 Z " fill="#298D51" transform="translate(12,119)"/>
<path d="M0 0 C-4.75 4.875 -4.75 4.875 -7 6 C-7 5.34 -7 4.68 -7 4 C-7.99 4.33 -8.98 4.66 -10 5 C-10.66 4.34 -11.32 3.68 -12 3 C-11.01 3 -10.02 3 -9 3 C-9 2.34 -9 1.68 -9 1 C-3.375 -1.125 -3.375 -1.125 0 0 Z " fill="#99AE8E" transform="translate(131,82)"/>
<path d="M0 0 C0.66 0.33 1.32 0.66 2 1 C-0.64 4.3 -3.28 7.6 -6 11 C-6.33 10.34 -6.66 9.68 -7 9 C-7.66 8.67 -8.32 8.34 -9 8 C-6.03 5.36 -3.06 2.72 0 0 Z " fill="#D1E2C7" transform="translate(216,58)"/>
<path d="M0 0 C0.66 0.33 1.32 0.66 2 1 C0.78521149 2.18163051 -0.44752408 3.34482835 -1.6875 4.5 C-2.37199219 5.1496875 -3.05648437 5.799375 -3.76171875 6.46875 C-6.40656372 8.27813784 -7.86162389 8.3077917 -11 8 C-7.71644638 4.32241995 -4.37221763 2.18610882 0 0 Z " fill="#7CAE64" transform="translate(215,45)"/>
<path d="M0 0 C6.45027515 0.26327654 9.47915791 2.50664023 14 7 C13.01 7.33 12.02 7.66 11 8 C8.61438008 6.52652887 7.26132231 5.52264461 6 3 C5.34 3 4.68 3 4 3 C4 2.34 4 1.68 4 1 C2.68 0.67 1.36 0.34 0 0 Z " fill="#D4DA54" transform="translate(133,38)"/>
<path d="M0 0 C1.32 0.33 2.64 0.66 4 1 C3.34 2.98 2.68 4.96 2 7 C0.68 6.67 -0.64 6.34 -2 6 C-2 4.68 -2 3.36 -2 2 C-1.34 2 -0.68 2 0 2 C0 1.34 0 0.68 0 0 Z " fill="#047C34" transform="translate(161,143)"/>
<path d="M0 0 C0.33 0 0.66 0 1 0 C0.67 4.95 0.34 9.9 0 15 C-2.46934085 11.29598872 -2.44928433 8.29412135 -2 4 C-1 1.5 -1 1.5 0 0 Z " fill="#CDE3D6" transform="translate(162,126)"/>
<path d="M0 0 C1.65 0 3.3 0 5 0 C3.50902342 3.7952131 1.24299151 5.61042731 -2 8 C-1.47731534 5.23723823 -0.89130413 2.6739124 0 0 Z " fill="#7AAC68" transform="translate(189,101)"/>
<path d="M0 0 C2.64 0.66 5.28 1.32 8 2 C8.33 3.32 8.66 4.64 9 6 C6.1875 5.8125 6.1875 5.8125 3 5 C1.125 2.4375 1.125 2.4375 0 0 Z " fill="#E1E58B" transform="translate(123,52)"/>
<path d="M0 0 C0.66 0.33 1.32 0.66 2 1 C2 3.64 2 6.28 2 9 C-1 9 -1 9 -2.6875 7.5 C-3.120625 7.005 -3.55375 6.51 -4 6 C-3.67 5.34 -3.34 4.68 -3 4 C-2.34 4.66 -1.68 5.32 -1 6 C-0.67 4.02 -0.34 2.04 0 0 Z " fill="#E0E8D1" transform="translate(169,66)"/>
<path d="M0 0 C1 2 1 2 0.3125 4.5625 C-0.3371875 5.7690625 -0.3371875 5.7690625 -1 7 C-2.32303717 7.3721042 -3.65737935 7.70630173 -5 8 C-6.28436734 9.9837767 -6.28436734 9.9837767 -7 12 C-7.66 11.67 -8.32 11.34 -9 11 C-6.03 7.37 -3.06 3.74 0 0 Z " fill="#7CAE63" transform="translate(216,60)"/>
<path d="M0 0 C0.66 0.33 1.32 0.66 2 1 C2 2.65 2 4.3 2 6 C-1.86695678 6 -4.5088452 4.58090029 -8 3 C-5.29120665 1.64560332 -2.99066732 1.93498549 0 2 C0 1.34 0 0.68 0 0 Z " fill="#D4DB48" transform="translate(147,46)"/>
<path d="M0 0 C0.66 0.66 1.32 1.32 2 2 C-5.75 3 -5.75 3 -8 3 C-8 3.66 -8 4.32 -8 5 C-8.66 5 -9.32 5 -10 5 C-7.66986569 -0.1595831 -5.58220377 -0.34888774 0 0 Z " fill="#338453" transform="translate(142,111)"/>
<path d="M0 0 C2.375 1.3125 2.375 1.3125 3.1875 3.4375 C3.249375 4.05625 3.31125 4.675 3.375 5.3125 C-0.40045388 4.22181332 -3.09543472 3.4041909 -5.625 0.3125 C-2.625 -0.6875 -2.625 -0.6875 0 0 Z " fill="#6A8A58" transform="translate(118.625,99.6875)"/>
<path d="M0 0 C0.99 0.33 1.98 0.66 3 1 C2.67 4.96 2.34 8.92 2 13 C3.32 13.33 4.64 13.66 6 14 C4.35 14 2.7 14 1 14 C0.67 9.38 0.34 4.76 0 0 Z " fill="#368E5C" transform="translate(31,126)"/>
<path d="M0 0 C1.65 0 3.3 0 5 0 C5 3.3 5 6.6 5 10 C4.01 10.33 3.02 10.66 2 11 C1.67 10.01 1.34 9.02 1 8 C1.66 8 2.32 8 3 8 C3.33 5.69 3.66 3.38 4 1 C2.68 0.67 1.36 0.34 0 0 Z " fill="#107A3D" transform="translate(34,112)"/>
<path d="M0 0 C0 0.33 0 0.66 0 1 C-2.31 1.33 -4.62 1.66 -7 2 C-7.33 3.98 -7.66 5.96 -8 8 C-8.99 7.67 -9.98 7.34 -11 7 C-8.87296567 0.78251503 -6.45381515 -0.28683623 0 0 Z " fill="#278950" transform="translate(60,111)"/>
<path d="M0 0 C-1.12451727 2.9719385 -2.22293791 5.33440687 -4 8 C-4.66 8 -5.32 8 -6 8 C-6 6.02 -6 4.04 -6 2 C-2.25 0 -2.25 0 0 0 Z " fill="#77AA5D" transform="translate(193,84)"/>
<path d="M0 0 C0.66 0.33 1.32 0.66 2 1 C2 1.66 2 2.32 2 3 C2.99 3 3.98 3 5 3 C5 3.99 5 4.98 5 6 C3.02 6 1.04 6 -1 6 C-0.67 4.02 -0.34 2.04 0 0 Z " fill="#227C48" transform="translate(26,145)"/>
<path d="M0 0 C1.32 0 2.64 0 4 0 C4 1.65 4 3.3 4 5 C1.69 5 -0.62 5 -3 5 C-2.01 4.67 -1.02 4.34 0 4 C0 2.68 0 1.36 0 0 Z " fill="#207F45" transform="translate(184,112)"/>
<path d="M0 0 C0.66 0.33 1.32 0.66 2 1 C2.625 4.0625 2.625 4.0625 3 7 C1.35 7.66 -0.3 8.32 -2 9 C-1.34 6.03 -0.68 3.06 0 0 Z " fill="#92C64C" transform="translate(180,14)"/>
<path d="M0 0 C0.66 0.66 1.32 1.32 2 2 C1.625 4.625 1.625 4.625 1 7 C0.01 7.33 -0.98 7.66 -2 8 C-2.20086443 4.28400809 -2.1519437 3.22791555 0 0 Z " fill="#6EAD53" transform="translate(196,88)"/>
<path d="M0 0 C1.32 0 2.64 0 4 0 C3.67 2.97 3.34 5.94 3 9 C2.34 8.67 1.68 8.34 1 8 C0.40644386 5.35139573 0.25790731 2.70802678 0 0 Z " fill="#A2C26D" transform="translate(176,76)"/>
<path d="M0 0 C0.33 0 0.66 0 1 0 C1.45732667 5.71658336 0.52273754 8.48649253 -3 13 C-4 11 -4 11 -3.22265625 8.3984375 C-2.83980469 7.40070312 -2.45695313 6.40296875 -2.0625 5.375 C-1.68222656 4.37210938 -1.30195313 3.36921875 -0.91015625 2.3359375 C-0.60980469 1.56507812 -0.30945313 0.79421875 0 0 Z " fill="#A1C364" transform="translate(162,23)"/>
<path d="M0 0 C3.875 1.75 3.875 1.75 5 4 C1.37 3.67 -2.26 3.34 -6 3 C-6 2.67 -6 2.34 -6 2 C-4.02 2 -2.04 2 0 2 C0 1.34 0 0.68 0 0 Z " fill="#7A8F6B" transform="translate(168,90)"/>
<path d="M0 0 C0.99 0 1.98 0 3 0 C3.33 1.65 3.66 3.3 4 5 C2.35 5 0.7 5 -1 5 C-0.67 3.35 -0.34 1.7 0 0 Z " fill="#137841" transform="translate(73,146)"/>
<path d="M0 0 C0.66 0.99 1.32 1.98 2 3 C1.33333333 4.33333333 0.66666667 5.66666667 0 7 C-0.35169068 8.32860925 -0.68770276 9.66158328 -1 11 C-2.67357513 5.62694301 -2.67357513 5.62694301 -3 3 C-1.625 1 -1.625 1 0 0 Z " fill="#21824E" transform="translate(13,128)"/>
<path d="M0 0 C0.99 0.33 1.98 0.66 3 1 C3.33 2.65 3.66 4.3 4 6 C2.35 6.33 0.7 6.66 -1 7 C-0.67 4.69 -0.34 2.38 0 0 Z " fill="#1B8248" transform="translate(84,115)"/>
<path d="M0 0 C2.35953094 2.35953094 2.49141413 3.77895617 3 7 C1.35 6.67 -0.3 6.34 -2 6 C-1.34 4.02 -0.68 2.04 0 0 Z " fill="#148243" transform="translate(7,112)"/>
<path d="M0 0 C0.66 0 1.32 0 2 0 C1.34 3.96 0.68 7.92 0 12 C-0.33 12 -0.66 12 -1 12 C-1.02687279 10.18757948 -1.04633715 8.37504767 -1.0625 6.5625 C-1.07410156 5.55316406 -1.08570313 4.54382812 -1.09765625 3.50390625 C-1 1 -1 1 0 0 Z " fill="#95C455" transform="translate(169,31)"/>
<path d="M0 0 C0.33 0 0.66 0 1 0 C0.67 2.64 0.34 5.28 0 8 C-0.99 8.33 -1.98 8.66 -3 9 C-2.44271087 5.65626525 -1.64826111 2.96687001 0 0 Z " fill="#A1C566" transform="translate(166,14)"/>
<path d="M0 0 C1.42944945 2.35438733 2.08661261 3.48032433 1.625 6.25 C1.41875 6.8275 1.2125 7.405 1 8 C1 7.34 1 6.68 1 6 C-0.65 6.33 -2.3 6.66 -4 7 C-4 6.34 -4 5.68 -4 5 C-3.01 4.34 -2.02 3.68 -1 3 C-0.67 2.01 -0.34 1.02 0 0 Z " fill="#23824F" transform="translate(42,139)"/>
<path d="M0 0 C1.46726798 3.81489674 0.43336419 6.29011622 -1 10 C-1.33 10 -1.66 10 -2 10 C-2.33 7.36 -2.66 4.72 -3 2 C-2.01 1.34 -1.02 0.68 0 0 Z " fill="#067934" transform="translate(168,113)"/>
<path d="M0 0 C2.475 0.99 2.475 0.99 5 2 C3.71937515 3.7074998 2.38232443 5.37373596 1 7 C0.34 7 -0.32 7 -1 7 C-0.67 4.69 -0.34 2.38 0 0 Z " fill="#77AE5D" transform="translate(212,82)"/>
<path d="M0 0 C2.475 0.99 2.475 0.99 5 2 C4.67 3.65 4.34 5.3 4 7 C1.49962266 4.82575883 0.56371414 3.26954202 0 0 Z " fill="#D0DA4A" transform="translate(115,40)"/>
<path d="M0 0 C-2.55068845 2.35448165 -3.71017358 2.98327924 -7.25 3.1875 C-8.1575 3.125625 -9.065 3.06375 -10 3 C-4.37755102 -1.45918367 -4.37755102 -1.45918367 0 0 Z " fill="#6FAC57" transform="translate(227,42)"/>
<path d="M0 0 C1.33333333 0 2.66666667 0 4 0 C4 1.65 4 3.3 4 5 C2.68 5 1.36 5 0 5 C0 3.35 0 1.7 0 0 Z " fill="#057C34" transform="translate(60,117)"/>
<path d="M0 0 C-4.73778043 2.36889021 -6.63970918 3.04875255 -12 2 C-12 1.67 -12 1.34 -12 1 C-3.96428571 -1.27678571 -3.96428571 -1.27678571 0 0 Z " fill="#6F8A5D" transform="translate(120,87)"/>
<path d="M0 0 C0.33 0 0.66 0 1 0 C1 1.65 1 3.3 1 5 C-0.65 5.66 -2.3 6.32 -4 7 C-2.92598892 4.08482708 -2.22189824 2.22189824 0 0 Z " fill="#79AC5F" transform="translate(197,58)"/>
<path d="M0 0 C0.99 0.33 1.98 0.66 3 1 C3 1.66 3 2.32 3 3 C3.66 3 4.32 3 5 3 C5 3.99 5 4.98 5 6 C3.68 5.67 2.36 5.34 1 5 C0.67 3.35 0.34 1.7 0 0 Z " fill="#D6DB48" transform="translate(131,54)"/>
</svg>
